<?xml version="1.0" encoding="utf-8"?>
<!-- Generator: Adobe Illustrator 16.0.0, SVG Export Plug-In . SVG Version: 6.00 Build 0)  -->
<!DOCTYPE svg PUBLIC "-//W3C//DTD SVG 1.1//EN" "http://www.w3.org/Graphics/SVG/1.1/DTD/svg11.dtd">
<svg version="1.1" id="Layer_1" xmlns="http://www.w3.org/2000/svg" xmlns:xlink="http://www.w3.org/1999/xlink" x="0px" y="0px"
	 width="412.979px" height="112.284px" viewBox="0 0 412.979 112.284" enable-background="new 0 0 412.979 112.284"
	 xml:space="preserve">
<g>
	<g>
		<path fill="#333333" d="M163.501,3.059l-0.104,0.419c-0.741,0.154-1.446,0.761-2.116,1.822l-8.254,12.696h-0.314l-1.655-13.177
			c-0.056-0.461-0.192-0.796-0.409-1.006c-0.217-0.209-0.443-0.321-0.681-0.335l0.104-0.419c0.545,0.042,1.299,0.063,2.263,0.063
			c1.075,0,1.913-0.021,2.514-0.063l-0.105,0.419c-0.447,0.028-0.786,0.07-1.016,0.125c-0.23,0.056-0.405,0.167-0.523,0.335
			c-0.119,0.167-0.178,0.426-0.178,0.775c0,0.098,0.014,0.272,0.042,0.524l1.194,10.119l5.803-8.904
			c0.6-0.936,0.901-1.627,0.901-2.074c0-0.307-0.129-0.531-0.388-0.67c-0.259-0.14-0.646-0.216-1.163-0.23l0.104-0.419
			c0.768,0.042,1.564,0.063,2.388,0.063C162.524,3.121,163.054,3.101,163.501,3.059z"/>
		<path fill="#333333" d="M161.344,11.344c0.489-1.264,1.194-2.332,2.116-3.205c0.922-0.873,1.99-1.31,3.205-1.31
			c0.894,0,1.596,0.276,2.105,0.828c0.51,0.552,0.765,1.372,0.765,2.461c0,1.104-0.245,2.287-0.733,3.551
			c-0.489,1.264-1.194,2.333-2.116,3.205c-0.922,0.873-1.99,1.31-3.205,1.31c-0.894,0-1.596-0.276-2.105-0.828
			s-0.765-1.372-0.765-2.461C160.61,13.792,160.854,12.608,161.344,11.344z M164.518,8.61c-0.636,0.908-1.146,2.043-1.529,3.404
			c-0.384,1.362-0.576,2.671-0.576,3.928c0,0.628,0.098,1.089,0.293,1.383c0.196,0.293,0.496,0.44,0.901,0.44
			c0.712,0,1.386-0.454,2.022-1.362c0.635-0.908,1.145-2.042,1.529-3.404c0.384-1.362,0.576-2.671,0.576-3.928
			c0-0.628-0.098-1.089-0.293-1.382c-0.196-0.293-0.496-0.44-0.901-0.44C165.827,7.249,165.153,7.702,164.518,8.61z"/>
		<path fill="#333333" d="M172.928,16.11c-0.042,0.167-0.063,0.321-0.063,0.461c0,0.28,0.083,0.489,0.251,0.628
			c0.167,0.14,0.384,0.209,0.649,0.209c0.349,0,0.673-0.15,0.974-0.45c0.3-0.3,0.597-0.849,0.89-1.645l0.293-0.817h0.398l-0.44,1.32
			c-0.293,0.866-0.674,1.477-1.142,1.833c-0.468,0.356-1.044,0.534-1.729,0.534c-0.628,0-1.097-0.154-1.404-0.461
			s-0.46-0.733-0.46-1.278c0-0.363,0.063-0.761,0.188-1.194l2.221-7.709h-1.886l0.105-0.419h1.885l0.922-3.184
			c0.754-0.028,1.383-0.126,1.885-0.293l-0.984,3.478h2.765l-0.063,0.419h-2.828L172.928,16.11z"/>
		<path fill="#333333" d="M184.241,11.187c-1.271,0.852-2.724,1.543-4.357,2.074c-0.154,0.699-0.23,1.376-0.23,2.032
			c0,1.341,0.482,2.011,1.445,2.011c1.201,0,2.276-0.698,3.227-2.095l0.335,0.167c-0.447,0.769-1.051,1.428-1.812,1.98
			c-0.762,0.552-1.561,0.828-2.399,0.828c-0.866,0-1.543-0.251-2.032-0.754c-0.489-0.503-0.733-1.236-0.733-2.2
			c0-1.061,0.311-2.259,0.932-3.593c0.621-1.333,1.463-2.468,2.524-3.404c1.061-0.936,2.213-1.404,3.457-1.404
			c0.447,0,0.817,0.119,1.11,0.356c0.293,0.238,0.44,0.58,0.44,1.026C186.147,9.343,185.511,10.335,184.241,11.187z M182.638,8.013
			c-0.552,0.523-1.068,1.218-1.55,2.084c-0.482,0.866-0.849,1.788-1.1,2.765c1.327-0.461,2.276-0.908,2.849-1.341
			c0.517-0.405,0.918-0.897,1.205-1.477c0.286-0.579,0.43-1.205,0.43-1.875c0-0.377-0.028-0.628-0.084-0.754
			c-0.056-0.126-0.14-0.188-0.251-0.188C183.689,7.228,183.189,7.489,182.638,8.013z"/>
		<path fill="#333333" d="M196.308,14.497h0.398l-0.482,1.53c-0.237,0.768-0.58,1.319-1.026,1.655
			c-0.447,0.335-0.915,0.503-1.404,0.503c-0.433,0-0.761-0.112-0.984-0.335c-0.224-0.223-0.335-0.544-0.335-0.963
			c0-0.391,0.091-0.936,0.272-1.634l0.293-1.068c-0.657,1.411-1.327,2.43-2.011,3.059c-0.685,0.628-1.411,0.943-2.179,0.943
			c-0.685,0-1.219-0.23-1.603-0.691c-0.384-0.461-0.576-1.152-0.576-2.074c0-1.159,0.304-2.416,0.911-3.771
			c0.607-1.354,1.432-2.496,2.472-3.425c1.04-0.929,2.168-1.394,3.383-1.394c0.279,0,0.538,0.091,0.775,0.272
			c0.237,0.182,0.405,0.426,0.503,0.733l1.047-3.917c0.056-0.182,0.084-0.37,0.084-0.566c0-0.279-0.108-0.485-0.325-0.618
			c-0.217-0.133-0.583-0.199-1.1-0.199l0.126-0.44c0.74-0.014,1.407-0.091,2-0.23c0.594-0.139,1.163-0.349,1.708-0.628L194.15,16.11
			c-0.084,0.335-0.126,0.573-0.126,0.712c0,0.391,0.168,0.586,0.503,0.586c0.279,0,0.538-0.16,0.775-0.482
			c0.237-0.321,0.489-0.873,0.754-1.655L196.308,14.497z M190.903,16.634c0.544-0.587,1.082-1.372,1.613-2.357
			s0.971-2.035,1.32-3.153l0.733-2.745c-0.084-0.363-0.227-0.631-0.43-0.806s-0.429-0.262-0.681-0.262
			c-0.852,0-1.655,0.451-2.409,1.352c-0.754,0.901-1.362,2.015-1.823,3.341c-0.461,1.327-0.691,2.556-0.691,3.687
			c0,1.215,0.307,1.823,0.922,1.823C189.876,17.514,190.358,17.22,190.903,16.634z"/>
		<path fill="#333333" d="M206.405,17.891h-1.823l2.681-9.071c-0.809,0.461-1.857,0.887-3.142,1.278l0.063-0.44
			c1.158-0.349,2.091-0.74,2.797-1.173c0.705-0.433,1.455-0.971,2.252-1.613h0.418L206.405,17.891z"/>
		<path fill="#333333" d="M216.711,11.344c0.489-1.264,1.194-2.332,2.116-3.205c0.922-0.873,1.99-1.31,3.205-1.31
			c0.894,0,1.596,0.276,2.105,0.828c0.51,0.552,0.765,1.372,0.765,2.461c0,1.104-0.244,2.287-0.733,3.551
			c-0.488,1.264-1.193,2.333-2.115,3.205c-0.922,0.873-1.99,1.31-3.206,1.31c-0.894,0-1.596-0.276-2.104-0.828
			c-0.511-0.552-0.766-1.372-0.766-2.461C215.978,13.792,216.223,12.608,216.711,11.344z M219.885,8.61
			c-0.636,0.908-1.146,2.043-1.529,3.404c-0.384,1.362-0.576,2.671-0.576,3.928c0,0.628,0.098,1.089,0.294,1.383
			c0.195,0.293,0.495,0.44,0.9,0.44c0.713,0,1.386-0.454,2.021-1.362s1.146-2.042,1.529-3.404s0.576-2.671,0.576-3.928
			c0-0.628-0.098-1.089-0.293-1.382c-0.196-0.293-0.496-0.44-0.901-0.44C221.194,7.249,220.521,7.702,219.885,8.61z"/>
		<path fill="#333333" d="M235.388,1.927c0.356,0.279,0.534,0.636,0.534,1.068c0,0.363-0.136,0.695-0.408,0.995
			s-0.604,0.45-0.995,0.45c-0.266,0-0.475-0.063-0.629-0.188c-0.153-0.125-0.223-0.3-0.209-0.523c0-0.335,0.108-0.625,0.324-0.87
			c0.217-0.244,0.507-0.422,0.87-0.534c0-0.125-0.095-0.241-0.283-0.346c-0.188-0.104-0.416-0.157-0.681-0.157
			c-0.419,0-0.824,0.182-1.215,0.545c-0.294,0.266-0.538,0.688-0.733,1.268c-0.196,0.58-0.44,1.435-0.733,2.566l-0.23,0.901v0.021
			h2.472l-0.125,0.419h-2.473l-3.75,13.994c-0.754,0.028-1.382,0.126-1.885,0.293l3.813-14.288h-1.886l0.126-0.419h1.886V7.102
			c0.307-1.145,0.625-2.077,0.953-2.796s0.723-1.302,1.184-1.75c0.321-0.321,0.716-0.576,1.184-0.765s0.946-0.283,1.435-0.283
			C234.547,1.508,235.032,1.648,235.388,1.927z"/>
		<path fill="#333333" d="M240.321,16.11c-0.042,0.167-0.063,0.321-0.063,0.461c0,0.28,0.084,0.489,0.252,0.628
			c0.167,0.14,0.384,0.209,0.649,0.209c0.349,0,0.674-0.15,0.974-0.45c0.301-0.3,0.598-0.849,0.891-1.645l0.293-0.817h0.398
			l-0.44,1.32c-0.293,0.866-0.674,1.477-1.142,1.833c-0.468,0.356-1.044,0.534-1.728,0.534c-0.629,0-1.097-0.154-1.404-0.461
			s-0.461-0.733-0.461-1.278c0-0.363,0.063-0.761,0.188-1.194l2.221-7.709h-1.885l0.104-0.419h1.886l0.921-3.184
			c0.755-0.028,1.383-0.126,1.886-0.293l-0.984,3.478h2.766l-0.063,0.419h-2.828L240.321,16.11z"/>
		<path fill="#333333" d="M255.007,14.497l-0.524,1.53c-0.502,1.438-1.348,2.158-2.534,2.158c-0.978,0-1.467-0.433-1.467-1.299
			c0-0.419,0.111-0.964,0.335-1.634l1.99-5.992c0.14-0.391,0.21-0.74,0.21-1.047c0-0.475-0.224-0.712-0.671-0.712
			c-0.517,0-1.071,0.325-1.665,0.974c-0.594,0.65-1.191,1.561-1.791,2.734c-0.601,1.173-1.16,2.535-1.676,4.085l-0.755,2.598h-1.822
			l4.147-13.973c0.07-0.237,0.105-0.426,0.105-0.566c0-0.279-0.112-0.485-0.336-0.618c-0.223-0.133-0.594-0.199-1.109-0.199
			l0.125-0.44c1.452-0.014,2.71-0.3,3.771-0.859l-3.038,10.391c0.754-1.704,1.509-2.93,2.263-3.677s1.578-1.121,2.472-1.121
			c1.132,0,1.697,0.531,1.697,1.592c0,0.447-0.104,0.971-0.314,1.571l-2.032,6.117c-0.111,0.335-0.167,0.601-0.167,0.796
			c0,0.335,0.167,0.503,0.502,0.503c0.279,0,0.549-0.157,0.807-0.471c0.259-0.314,0.527-0.87,0.807-1.666l0.272-0.775H255.007z"/>
		<path fill="#333333" d="M262.862,11.187c-1.271,0.852-2.724,1.543-4.357,2.074c-0.154,0.699-0.23,1.376-0.23,2.032
			c0,1.341,0.481,2.011,1.445,2.011c1.201,0,2.276-0.698,3.227-2.095l0.335,0.167c-0.447,0.769-1.051,1.428-1.813,1.98
			c-0.761,0.552-1.561,0.828-2.398,0.828c-0.866,0-1.543-0.251-2.032-0.754s-0.733-1.236-0.733-2.2c0-1.061,0.312-2.259,0.933-3.593
			c0.621-1.333,1.463-2.468,2.524-3.404c1.062-0.936,2.214-1.404,3.457-1.404c0.446,0,0.816,0.119,1.11,0.356
			c0.293,0.238,0.439,0.58,0.439,1.026C264.769,9.343,264.133,10.335,262.862,11.187z M261.26,8.013
			c-0.552,0.523-1.068,1.218-1.551,2.084c-0.481,0.866-0.848,1.788-1.1,2.765c1.327-0.461,2.276-0.908,2.85-1.341
			c0.517-0.405,0.918-0.897,1.204-1.477c0.286-0.579,0.43-1.205,0.43-1.875c0-0.377-0.028-0.628-0.084-0.754
			c-0.056-0.126-0.14-0.188-0.251-0.188C262.311,7.228,261.812,7.489,261.26,8.013z"/>
	</g>
	<g>
		<path fill="#333333" d="M68.182,31.351c0.293,0.286,0.44,0.632,0.44,1.037c0,0.852-0.482,1.516-1.445,1.99
			c-0.852,0.405-2.019,0.607-3.499,0.607c-0.251,0-0.657-0.014-1.215-0.042l-3.08,11.522c-0.112,0.419-0.167,0.74-0.167,0.964
			c0,0.363,0.129,0.622,0.388,0.775c0.258,0.154,0.708,0.245,1.351,0.272l-0.084,0.419c-0.88-0.042-2.172-0.063-3.875-0.063
			c-1.662,0-2.891,0.021-3.687,0.063l0.083-0.419c0.601-0.028,1.065-0.101,1.394-0.22c0.328-0.118,0.586-0.314,0.775-0.586
			s0.353-0.674,0.492-1.205l3.164-11.836c-1.047-0.098-1.886-0.146-2.514-0.146c-1.159,0-1.948,0.119-2.367,0.356
			c0.363,0.112,0.663,0.318,0.901,0.618c0.237,0.3,0.356,0.66,0.356,1.079c0,0.489-0.154,0.905-0.46,1.247
			c-0.308,0.342-0.699,0.513-1.173,0.513c-0.461,0-0.828-0.157-1.1-0.471c-0.272-0.314-0.408-0.708-0.408-1.184
			c0-0.391,0.108-0.768,0.325-1.131c0.216-0.363,0.562-0.663,1.037-0.901c0.684-0.335,1.62-0.502,2.807-0.502
			c0.922,0,2.221,0.083,3.896,0.251c1.536,0.14,2.653,0.209,3.352,0.209c0.936,0,1.676-0.09,2.221-0.272
			c-0.21-0.196-0.385-0.437-0.524-0.723c-0.14-0.286-0.209-0.597-0.209-0.932c0-0.502,0.15-0.915,0.45-1.236
			s0.702-0.482,1.205-0.482C67.497,30.921,67.888,31.064,68.182,31.351z"/>
		<path fill="#333333" d="M63.688,42.15c0.523-1.243,1.299-2.284,2.325-3.122s2.252-1.257,3.677-1.257
			c1.089,0,1.927,0.297,2.514,0.89c0.587,0.594,0.88,1.449,0.88,2.566c0,1.146-0.262,2.339-0.786,3.583
			c-0.523,1.243-1.299,2.283-2.325,3.121c-1.026,0.838-2.252,1.257-3.677,1.257c-1.089,0-1.927-0.297-2.514-0.891
			c-0.586-0.593-0.88-1.449-0.88-2.566C62.902,44.587,63.164,43.393,63.688,42.15z M67.888,39.678
			c-0.615,0.992-1.131,2.207-1.55,3.645c-0.419,1.439-0.628,2.78-0.628,4.022c0,0.503,0.056,0.866,0.167,1.089
			c0.112,0.224,0.293,0.335,0.545,0.335c0.517,0,1.079-0.482,1.687-1.446c0.607-0.963,1.121-2.161,1.54-3.593
			s0.628-2.79,0.628-4.075c0-0.544-0.056-0.925-0.167-1.142c-0.112-0.216-0.287-0.325-0.524-0.325
			C69.068,38.19,68.502,38.686,67.888,39.678z"/>
		<path fill="#333333" d="M84.658,38.599c0.44,0.552,0.66,1.351,0.66,2.398c0,1.146-0.255,2.357-0.765,3.635
			s-1.24,2.357-2.189,3.237c-0.95,0.88-2.053,1.32-3.31,1.32c-0.391,0-0.754-0.063-1.089-0.188
			c-0.335-0.126-0.601-0.307-0.796-0.545l-0.565,2.011c-0.084,0.293-0.126,0.544-0.126,0.754c0,0.391,0.14,0.656,0.419,0.796
			c0.279,0.139,0.719,0.216,1.32,0.23l-0.126,0.44l-0.482-0.021c-1.424-0.042-2.367-0.063-2.828-0.063s-1.445,0.028-2.954,0.084
			l0.125-0.44c0.503,0,0.866-0.091,1.089-0.272c0.224-0.182,0.405-0.524,0.545-1.026l3.792-13.596
			c-0.391,0.866-0.838,1.645-1.341,2.336c-0.502,0.691-1.117,1.407-1.843,2.147l-0.23-0.272c0.614-0.67,1.124-1.253,1.529-1.749
			c0.405-0.496,0.813-1.103,1.226-1.823c0.412-0.719,0.82-1.595,1.226-2.629l0.063-0.251c1.131-0.084,2.172-0.279,3.122-0.586
			l-1.802,6.389c0.503-1.089,1.034-1.885,1.592-2.388c0.559-0.502,1.159-0.754,1.802-0.754
			C83.572,37.771,84.218,38.047,84.658,38.599z M80.154,47.314c0.622-0.845,1.128-1.893,1.519-3.143
			c0.391-1.25,0.586-2.434,0.586-3.551c0-0.656-0.06-1.11-0.178-1.362s-0.29-0.377-0.513-0.377c-0.419,0-0.894,0.405-1.424,1.215
			c-0.531,0.81-1.02,1.837-1.467,3.08L77.273,48.1c0.265,0.321,0.586,0.481,0.963,0.481C78.894,48.581,79.532,48.159,80.154,47.314z
			"/>
		<path fill="#333333" d="M102.098,41.626c0,1.858-0.583,3.6-1.75,5.227s-2.587,2.971-4.263,4.033
			c-1.676,1.061-3.219,1.71-4.63,1.948l-0.125-0.419c1.243-0.335,2.461-1.047,3.656-2.137c1.194-1.089,2.171-2.472,2.933-4.148
			c0.761-1.676,1.142-3.505,1.142-5.489c0-0.922-0.091-1.561-0.272-1.917c-0.182-0.356-0.454-0.534-0.817-0.534
			c-0.601,0-1.142,0.342-1.624,1.026c-0.481,0.685-0.862,1.516-1.142,2.493s-0.419,1.878-0.419,2.702
			c0,1.229,0.342,1.844,1.026,1.844c0.363,0,0.712-0.174,1.048-0.524c0.335-0.349,0.621-0.894,0.859-1.634l0.356,0.104
			c-0.573,2.025-1.718,3.038-3.436,3.038c-0.88,0-1.592-0.276-2.137-0.828c-0.544-0.552-0.817-1.331-0.817-2.336
			c0-1.075,0.311-2.102,0.932-3.08s1.456-1.76,2.503-2.346c1.048-0.587,2.172-0.88,3.373-0.88
			C100.896,37.771,102.098,39.057,102.098,41.626z"/>
		<path fill="#333333" d="M122.293,34.063c-0.321,0.866-0.594,1.718-0.817,2.556c-0.238,0.88-0.384,1.495-0.44,1.844h-0.482
			c0.056-0.433,0.083-0.859,0.083-1.278c0-0.963-0.192-1.645-0.576-2.042c-0.385-0.398-1.016-0.597-1.896-0.597h-0.482
			c-0.461,0-0.807,0.039-1.037,0.115c-0.23,0.077-0.416,0.234-0.555,0.472c-0.14,0.238-0.272,0.622-0.398,1.152l-1.341,5.028h0.964
			c0.67,0,1.236-0.23,1.697-0.691s0.852-1.068,1.173-1.823h0.46c-0.209,0.657-0.468,1.564-0.775,2.724
			c-0.125,0.531-0.342,1.564-0.649,3.101h-0.461c0.042-0.95-0.052-1.669-0.283-2.158c-0.23-0.489-0.695-0.733-1.393-0.733h-0.838
			l-1.32,4.944c-0.112,0.419-0.168,0.727-0.168,0.922c0,0.335,0.129,0.559,0.388,0.67c0.258,0.112,0.729,0.182,1.414,0.209
			l-0.083,0.419c-0.852-0.042-2.095-0.063-3.729-0.063c-1.537,0-2.674,0.021-3.415,0.063l0.105-0.419
			c0.502-0.028,0.876-0.084,1.121-0.167c0.244-0.084,0.443-0.244,0.597-0.482c0.153-0.237,0.3-0.622,0.44-1.152l2.765-10.391
			c0.112-0.475,0.167-0.81,0.167-1.006c0-0.307-0.101-0.51-0.304-0.607s-0.569-0.161-1.1-0.188l0.104-0.419
			c1.522,0.042,3.792,0.063,6.809,0.063C120.023,34.126,121.441,34.105,122.293,34.063z"/>
		<path fill="#333333" d="M120.481,42.15c0.523-1.243,1.299-2.284,2.325-3.122s2.252-1.257,3.677-1.257
			c1.089,0,1.927,0.297,2.514,0.89c0.587,0.594,0.88,1.449,0.88,2.566c0,1.146-0.262,2.339-0.786,3.583
			c-0.523,1.243-1.299,2.283-2.325,3.121c-1.026,0.838-2.252,1.257-3.677,1.257c-1.089,0-1.927-0.297-2.514-0.891
			c-0.586-0.593-0.88-1.449-0.88-2.566C119.695,44.587,119.957,43.393,120.481,42.15z M124.681,39.678
			c-0.615,0.992-1.131,2.207-1.55,3.645c-0.419,1.439-0.628,2.78-0.628,4.022c0,0.503,0.056,0.866,0.167,1.089
			c0.112,0.224,0.293,0.335,0.545,0.335c0.517,0,1.079-0.482,1.687-1.446c0.607-0.963,1.121-2.161,1.54-3.593
			s0.628-2.79,0.628-4.075c0-0.544-0.056-0.925-0.167-1.142c-0.112-0.216-0.287-0.325-0.524-0.325
			C125.861,38.19,125.295,38.686,124.681,39.678z"/>
		<path fill="#333333" d="M131.563,42.15c0.523-1.243,1.299-2.284,2.325-3.122s2.252-1.257,3.677-1.257
			c1.089,0,1.927,0.297,2.514,0.89c0.587,0.594,0.88,1.449,0.88,2.566c0,1.146-0.262,2.339-0.786,3.583
			c-0.523,1.243-1.299,2.283-2.325,3.121c-1.026,0.838-2.252,1.257-3.677,1.257c-1.089,0-1.927-0.297-2.514-0.891
			c-0.586-0.593-0.88-1.449-0.88-2.566C130.777,44.587,131.039,43.393,131.563,42.15z M135.763,39.678
			c-0.615,0.992-1.131,2.207-1.55,3.645c-0.419,1.439-0.628,2.78-0.628,4.022c0,0.503,0.056,0.866,0.167,1.089
			c0.112,0.224,0.293,0.335,0.545,0.335c0.517,0,1.079-0.482,1.687-1.446c0.607-0.963,1.121-2.161,1.54-3.593
			s0.628-2.79,0.628-4.075c0-0.544-0.056-0.925-0.167-1.142c-0.112-0.216-0.287-0.325-0.524-0.325
			C136.943,38.19,136.377,38.686,135.763,39.678z"/>
		<path fill="#333333" d="M152.418,45.501h0.398l-0.503,1.53c-0.251,0.796-0.625,1.354-1.121,1.676
			c-0.496,0.321-1.044,0.482-1.645,0.482c-0.866,0-1.418-0.321-1.655-0.964c-0.112-0.251-0.167-0.544-0.167-0.88
			c0-0.405,0.084-0.901,0.251-1.487l0.021-0.084c-0.531,1.188-1.093,2.053-1.687,2.598c-0.594,0.545-1.302,0.817-2.126,0.817
			c-0.74,0-1.341-0.245-1.802-0.733c-0.46-0.489-0.691-1.222-0.691-2.2c0-1.131,0.293-2.364,0.88-3.698
			c0.586-1.333,1.41-2.465,2.472-3.394s2.27-1.393,3.625-1.393c0.656,0,1.082,0.237,1.278,0.712l0.943-3.562
			c0.069-0.251,0.104-0.447,0.104-0.587c0-0.279-0.108-0.481-0.325-0.607c-0.217-0.125-0.583-0.188-1.1-0.188l0.125-0.44
			c0.964-0.014,1.84-0.091,2.629-0.23c0.789-0.139,1.546-0.349,2.273-0.628l-4.106,14.874c-0.07,0.196-0.104,0.384-0.104,0.566
			c0,0.321,0.132,0.481,0.398,0.481c0.209,0,0.419-0.122,0.628-0.366c0.209-0.245,0.426-0.674,0.649-1.289L152.418,45.501z
			 M149.799,38.986c-0.154-0.489-0.433-0.733-0.838-0.733c-0.601,0-1.225,0.429-1.875,1.288c-0.649,0.859-1.194,1.945-1.634,3.258
			c-0.44,1.313-0.66,2.612-0.66,3.896c0,0.489,0.053,0.852,0.157,1.089c0.105,0.238,0.276,0.356,0.513,0.356
			c0.279,0,0.608-0.206,0.985-0.618s0.771-1.009,1.184-1.792c0.412-0.782,0.786-1.71,1.121-2.786L149.799,38.986z"/>
		<path fill="#333333" d="M176.614,31.351c0.293,0.286,0.44,0.632,0.44,1.037c0,0.852-0.482,1.516-1.445,1.99
			c-0.852,0.405-2.019,0.607-3.499,0.607c-0.251,0-0.657-0.014-1.215-0.042l-3.08,11.522c-0.112,0.419-0.167,0.74-0.167,0.964
			c0,0.363,0.129,0.622,0.388,0.775c0.258,0.154,0.708,0.245,1.351,0.272l-0.084,0.419c-0.88-0.042-2.172-0.063-3.875-0.063
			c-1.662,0-2.891,0.021-3.687,0.063l0.083-0.419c0.601-0.028,1.065-0.101,1.394-0.22c0.328-0.118,0.586-0.314,0.775-0.586
			s0.353-0.674,0.492-1.205l3.164-11.836c-1.047-0.098-1.886-0.146-2.514-0.146c-1.159,0-1.948,0.119-2.367,0.356
			c0.363,0.112,0.663,0.318,0.901,0.618c0.237,0.3,0.356,0.66,0.356,1.079c0,0.489-0.154,0.905-0.46,1.247
			c-0.308,0.342-0.699,0.513-1.173,0.513c-0.461,0-0.828-0.157-1.1-0.471c-0.272-0.314-0.408-0.708-0.408-1.184
			c0-0.391,0.108-0.768,0.325-1.131c0.216-0.363,0.562-0.663,1.037-0.901c0.684-0.335,1.62-0.502,2.807-0.502
			c0.922,0,2.221,0.083,3.896,0.251c1.536,0.14,2.653,0.209,3.352,0.209c0.936,0,1.676-0.09,2.221-0.272
			c-0.21-0.196-0.385-0.437-0.524-0.723c-0.14-0.286-0.209-0.597-0.209-0.932c0-0.502,0.15-0.915,0.45-1.236
			s0.702-0.482,1.205-0.482C175.929,30.921,176.32,31.064,176.614,31.351z"/>
		<path fill="#333333" d="M172.12,42.15c0.523-1.243,1.299-2.284,2.325-3.122s2.252-1.257,3.677-1.257
			c1.089,0,1.927,0.297,2.514,0.89c0.587,0.594,0.88,1.449,0.88,2.566c0,1.146-0.262,2.339-0.786,3.583
			c-0.523,1.243-1.299,2.283-2.325,3.121c-1.026,0.838-2.252,1.257-3.677,1.257c-1.089,0-1.927-0.297-2.514-0.891
			c-0.586-0.593-0.88-1.449-0.88-2.566C171.334,44.587,171.596,43.393,172.12,42.15z M176.32,39.678
			c-0.615,0.992-1.131,2.207-1.55,3.645c-0.419,1.439-0.628,2.78-0.628,4.022c0,0.503,0.056,0.866,0.167,1.089
			c0.112,0.224,0.293,0.335,0.545,0.335c0.517,0,1.079-0.482,1.687-1.446c0.607-0.963,1.121-2.161,1.54-3.593
			s0.628-2.79,0.628-4.075c0-0.544-0.056-0.925-0.167-1.142c-0.112-0.216-0.287-0.325-0.524-0.325
			C177.5,38.19,176.935,38.686,176.32,39.678z"/>
		<path fill="#333333" d="M193.394,45.439h0.398l-0.565,1.592c-0.266,0.768-0.646,1.319-1.142,1.655
			c-0.496,0.335-1.051,0.503-1.666,0.503c-0.377,0-0.698-0.063-0.963-0.188c-0.266-0.126-0.461-0.3-0.587-0.524
			c-0.125-0.251-0.188-0.538-0.188-0.859s0.07-0.775,0.209-1.362l0.566-2.158c-0.545,1.313-1.068,2.339-1.571,3.08
			s-1.013,1.26-1.529,1.561c-0.517,0.3-1.097,0.451-1.739,0.451c-0.628,0-1.1-0.147-1.414-0.44
			c-0.314-0.293-0.472-0.719-0.472-1.278c0-0.433,0.091-0.915,0.272-1.446l2.032-6.18c0.084-0.251,0.125-0.454,0.125-0.607
			c0-0.293-0.133-0.44-0.398-0.44c-0.224,0-0.443,0.119-0.66,0.356c-0.217,0.238-0.437,0.67-0.66,1.299l-0.377,1.005h-0.398
			l0.523-1.529c0.503-1.438,1.438-2.158,2.807-2.158c1.271,0,1.907,0.58,1.907,1.739c0,0.433-0.098,0.963-0.293,1.592l-1.885,5.656
			c-0.126,0.377-0.188,0.677-0.188,0.901c0,0.321,0.132,0.481,0.398,0.481c0.419,0,0.915-0.412,1.487-1.236
			c0.572-0.824,1.148-1.917,1.729-3.278c0.579-1.362,1.092-2.825,1.54-4.389l0.314-1.173c1.243-0.028,2.255-0.125,3.038-0.293
			l-2.619,9.343c-0.084,0.293-0.126,0.524-0.126,0.691c0,0.238,0.119,0.356,0.356,0.356c0.265,0,0.502-0.125,0.712-0.377
			s0.419-0.677,0.629-1.278L193.394,45.439z"/>
		<path fill="#333333" d="M204.654,38.243c0.3,0.314,0.45,0.723,0.45,1.226c0,0.601-0.191,1.114-0.576,1.54
			c-0.385,0.426-0.855,0.639-1.414,0.639c-0.404,0-0.719-0.108-0.942-0.325c-0.224-0.216-0.335-0.527-0.335-0.932
			c0-0.489,0.168-0.932,0.502-1.331c0.336-0.398,0.748-0.652,1.236-0.765c-0.027,0-0.07-0.01-0.125-0.031
			c-0.057-0.021-0.105-0.031-0.146-0.031c-0.713,0-1.439,0.517-2.179,1.55c-0.741,1.034-1.495,2.877-2.263,5.53l-0.922,3.583h-2.954
			l2.556-9.05c0.07-0.223,0.104-0.44,0.104-0.649c0-0.265-0.112-0.398-0.335-0.398c-0.266,0-0.503,0.126-0.712,0.377
			c-0.209,0.251-0.426,0.678-0.649,1.278l-0.398,1.068h-0.398l0.565-1.592c0.517-1.438,1.48-2.158,2.891-2.158
			c1.075,0,1.613,0.565,1.613,1.697c0,0.405-0.056,0.817-0.168,1.236l-0.167,0.67c0.517-1.327,1.044-2.259,1.582-2.796
			c0.537-0.538,1.184-0.807,1.938-0.807C203.938,37.771,204.354,37.929,204.654,38.243z"/>
		<path fill="#333333" d="M206.885,48.749c0.53,0,0.957-0.161,1.278-0.482s0.481-0.761,0.481-1.32c0-0.447-0.098-0.908-0.293-1.383
			c-0.196-0.475-0.489-1.012-0.88-1.613c-0.057-0.084-0.22-0.335-0.492-0.754s-0.475-0.82-0.607-1.205
			c-0.133-0.384-0.199-0.765-0.199-1.142c0-0.908,0.338-1.648,1.016-2.221s1.609-0.859,2.797-0.859c0.908,0,1.665,0.164,2.273,0.492
			c0.607,0.328,0.911,0.89,0.911,1.687c0,0.391-0.112,0.747-0.335,1.068c-0.224,0.321-0.538,0.482-0.943,0.482
			c-0.349,0-0.628-0.133-0.838-0.398c-0.209-0.265-0.314-0.601-0.314-1.006c0-0.349,0.063-0.673,0.188-0.974
			c0.126-0.3,0.279-0.555,0.461-0.765c-0.182-0.111-0.426-0.167-0.733-0.167c-0.502,0-0.897,0.157-1.184,0.471
			c-0.286,0.314-0.437,0.751-0.45,1.31c0,0.377,0.073,0.719,0.22,1.026c0.147,0.308,0.395,0.74,0.744,1.299l0.293,0.44
			c0.447,0.741,0.765,1.348,0.953,1.823c0.188,0.475,0.283,0.95,0.283,1.424c0,0.615-0.161,1.163-0.481,1.645
			c-0.322,0.482-0.779,0.863-1.372,1.142c-0.595,0.279-1.289,0.419-2.085,0.419c-0.992,0-1.815-0.192-2.472-0.576
			c-0.656-0.384-0.984-1.002-0.984-1.854c0-0.419,0.104-0.775,0.313-1.068c0.21-0.293,0.495-0.44,0.858-0.44s0.653,0.154,0.87,0.461
			c0.216,0.307,0.325,0.698,0.325,1.173c0,0.308-0.035,0.583-0.105,0.828c-0.07,0.245-0.174,0.542-0.314,0.89
			C206.277,48.7,206.55,48.749,206.885,48.749z"/>
		<path fill="#333333" d="M221.717,39.217c0-0.279-0.126-0.419-0.377-0.419c-0.252,0-0.482,0.129-0.691,0.388
			c-0.21,0.258-0.426,0.681-0.649,1.268l-0.419,1.068h-0.398l0.587-1.592c0.517-1.438,1.487-2.158,2.912-2.158
			c0.642,0,1.11,0.157,1.403,0.471c0.293,0.314,0.44,0.723,0.44,1.226c0,0.405-0.077,0.817-0.23,1.236l-2.2,6.411
			c-0.084,0.251-0.126,0.454-0.126,0.607c0,0.293,0.14,0.44,0.419,0.44c0.21,0,0.423-0.118,0.64-0.356
			c0.216-0.237,0.443-0.67,0.681-1.299l0.377-1.006h0.398l-0.545,1.53c-0.489,1.438-1.432,2.158-2.828,2.158
			c-1.271,0-1.906-0.58-1.906-1.739c0-0.461,0.104-0.992,0.314-1.592l2.053-6.013C221.668,39.524,221.717,39.315,221.717,39.217z
			 M222.995,33.205c0.404-0.335,0.907-0.503,1.508-0.503c0.489,0,0.869,0.115,1.142,0.346s0.409,0.548,0.409,0.953
			c0,0.559-0.21,1.02-0.629,1.383s-0.936,0.544-1.55,0.544c-0.503,0-0.888-0.122-1.152-0.367c-0.266-0.244-0.385-0.576-0.356-0.995
			C222.38,33.994,222.59,33.54,222.995,33.205z"/>
		<path fill="#333333" d="M237.114,45.501l-0.524,1.53c-0.502,1.438-1.438,2.158-2.807,2.158c-0.782,0-1.341-0.23-1.676-0.691
			c-0.182-0.265-0.272-0.594-0.272-0.985c0-0.447,0.111-0.998,0.335-1.655l1.886-5.656c0.125-0.377,0.188-0.677,0.188-0.901
			c0-0.321-0.133-0.482-0.398-0.482c-0.419,0-0.925,0.426-1.519,1.278c-0.594,0.852-1.19,1.973-1.791,3.362
			c-0.601,1.39-1.125,2.853-1.571,4.389l-0.272,1.047h-2.954l2.535-9.05c0.084-0.251,0.126-0.475,0.126-0.67
			c0-0.251-0.119-0.377-0.356-0.377c-0.266,0-0.5,0.123-0.702,0.367c-0.202,0.245-0.415,0.674-0.639,1.289l-0.398,1.068h-0.397
			l0.565-1.592c0.266-0.768,0.621-1.32,1.068-1.655c0.447-0.335,0.991-0.502,1.634-0.502c1.201,0,1.802,0.573,1.802,1.718
			c0,0.391-0.056,0.796-0.167,1.215l-0.649,2.535c0.572-1.425,1.12-2.531,1.645-3.321c0.523-0.789,1.054-1.344,1.592-1.665
			c0.537-0.321,1.135-0.482,1.791-0.482c1.257,0,1.886,0.559,1.886,1.676c0,0.419-0.091,0.915-0.272,1.487l-2.053,6.18
			c-0.084,0.251-0.126,0.454-0.126,0.607c0,0.293,0.133,0.44,0.398,0.44c0.223,0,0.442-0.118,0.659-0.356
			c0.217-0.237,0.437-0.67,0.66-1.299l0.377-1.006H237.114z"/>
		<path fill="#333333" d="M246.813,47.115c-0.042,0.14-0.063,0.28-0.063,0.419c0,0.209,0.056,0.367,0.167,0.472
			c0.112,0.104,0.266,0.157,0.461,0.157c0.308,0,0.604-0.15,0.891-0.45s0.541-0.75,0.765-1.351l0.314-0.859h0.397l-0.419,1.215
			c-0.544,1.648-1.592,2.472-3.142,2.472c-0.713,0-1.247-0.186-1.603-0.555c-0.356-0.37-0.535-0.876-0.535-1.519
			c0-0.405,0.063-0.824,0.189-1.257l2.115-7.374h-1.885l0.104-0.419h1.906l0.9-3.121c1.188-0.014,2.2-0.112,3.038-0.293
			l-0.984,3.415h2.367l-0.063,0.419h-2.43L246.813,47.115z"/>
		<path fill="#333333" d="M261.771,45.501l-0.523,1.53c-0.503,1.438-1.438,2.158-2.808,2.158c-1.271,0-1.906-0.566-1.906-1.697
			c0-0.502,0.105-1.047,0.314-1.634l1.864-5.656c0.126-0.405,0.188-0.712,0.188-0.922c0-0.307-0.133-0.461-0.397-0.461
			c-0.392,0-0.855,0.363-1.394,1.089c-0.537,0.727-1.086,1.704-1.645,2.933s-1.068,2.57-1.529,4.022l-0.503,1.76
			c-0.014,0.014-0.021,0.035-0.021,0.063v-0.021l-0.063,0.23h-2.954l4.147-13.973c0.07-0.251,0.105-0.447,0.105-0.587
			c0-0.279-0.108-0.481-0.325-0.607c-0.217-0.125-0.583-0.188-1.1-0.188l0.126-0.44c0.977-0.014,1.854-0.091,2.629-0.23
			c0.775-0.139,1.525-0.349,2.252-0.628l-2.85,9.742c0.713-1.578,1.415-2.674,2.105-3.289c0.691-0.615,1.478-0.922,2.357-0.922
			c0.656,0,1.138,0.15,1.445,0.45c0.307,0.301,0.461,0.709,0.461,1.226c0,0.447-0.098,0.943-0.293,1.487l-2.054,6.18
			c-0.084,0.251-0.125,0.454-0.125,0.607c0,0.293,0.139,0.44,0.419,0.44c0.461,0,0.894-0.551,1.299-1.655l0.377-1.006H261.771z"/>
		<path fill="#333333" d="M270.57,42.464c-1.299,0.866-2.808,1.537-4.525,2.011c-0.084,0.475-0.126,0.95-0.126,1.425
			c0,0.74,0.137,1.264,0.409,1.571c0.271,0.307,0.673,0.46,1.204,0.46c0.433,0,0.922-0.136,1.467-0.408
			c0.544-0.272,1.075-0.709,1.592-1.31l0.335,0.167c-0.503,0.783-1.177,1.446-2.021,1.99c-0.845,0.545-1.791,0.817-2.839,0.817
			c-0.963,0-1.753-0.259-2.367-0.775s-0.922-1.243-0.922-2.179c0-1.243,0.336-2.528,1.006-3.854c0.671-1.327,1.585-2.427,2.744-3.3
			c1.159-0.873,2.431-1.309,3.813-1.309c0.642,0,1.166,0.143,1.571,0.429c0.404,0.287,0.607,0.695,0.607,1.226
			C272.519,40.586,271.869,41.598,270.57,42.464z M268.496,39.028c-0.517,0.573-0.992,1.316-1.425,2.231
			c-0.433,0.915-0.754,1.854-0.964,2.818c0.992-0.433,1.76-0.901,2.305-1.404c0.559-0.502,0.998-1.079,1.319-1.728
			s0.482-1.344,0.482-2.084c0-0.265-0.028-0.447-0.084-0.545c-0.056-0.097-0.14-0.146-0.251-0.146
			C269.474,38.169,269.013,38.456,268.496,39.028z"/>
		<path fill="#333333" d="M300.736,34.063l-0.104,0.419c-0.489,0.14-0.922,0.36-1.299,0.66c-0.377,0.301-0.769,0.821-1.173,1.561
			L291.561,49h-1.089l-1.299-9.344L283.537,49h-1.089l-1.655-13.177c-0.056-0.475-0.188-0.813-0.398-1.016
			c-0.209-0.202-0.447-0.311-0.712-0.325l0.104-0.419c0.685,0.042,1.662,0.063,2.933,0.063c1.188,0,2.096-0.021,2.724-0.063
			l-0.104,0.419c-0.405,0.028-0.691,0.125-0.859,0.293c-0.167,0.168-0.251,0.482-0.251,0.943c0,0.224,0.007,0.398,0.021,0.524
			l1.006,9.092l3.834-6.306l-0.44-3.205c-0.056-0.461-0.167-0.796-0.335-1.006c-0.167-0.209-0.355-0.321-0.565-0.335l0.104-0.419
			c0.656,0.042,1.564,0.063,2.724,0.063c1.452,0,2.542-0.021,3.269-0.063l-0.105,0.419c-0.628,0.028-1.064,0.123-1.309,0.283
			c-0.245,0.161-0.367,0.464-0.367,0.911c0,0.098,0.014,0.287,0.042,0.566l1.11,8.757l4.315-7.94
			c0.349-0.656,0.523-1.173,0.523-1.55c0-0.349-0.143-0.6-0.429-0.754c-0.287-0.154-0.73-0.245-1.331-0.272l0.105-0.419
			c0.572,0.042,1.487,0.063,2.744,0.063C299.773,34.126,300.304,34.105,300.736,34.063z"/>
		<path fill="#333333" d="M298.107,42.15c0.523-1.243,1.299-2.284,2.325-3.122s2.252-1.257,3.677-1.257
			c1.089,0,1.928,0.297,2.514,0.89c0.587,0.594,0.88,1.449,0.88,2.566c0,1.146-0.262,2.339-0.785,3.583
			c-0.524,1.243-1.299,2.283-2.325,3.121c-1.027,0.838-2.253,1.257-3.677,1.257c-1.09,0-1.928-0.297-2.515-0.891
			c-0.586-0.593-0.88-1.449-0.88-2.566C297.321,44.587,297.584,43.393,298.107,42.15z M302.308,39.678
			c-0.614,0.992-1.131,2.207-1.55,3.645c-0.419,1.439-0.629,2.78-0.629,4.022c0,0.503,0.056,0.866,0.168,1.089
			c0.111,0.224,0.293,0.335,0.544,0.335c0.517,0,1.079-0.482,1.687-1.446c0.607-0.963,1.121-2.161,1.54-3.593
			s0.629-2.79,0.629-4.075c0-0.544-0.057-0.925-0.168-1.142c-0.112-0.216-0.286-0.325-0.523-0.325
			C303.487,38.19,302.922,38.686,302.308,39.678z"/>
		<path fill="#333333" d="M318.135,38.243c0.3,0.314,0.45,0.723,0.45,1.226c0,0.601-0.192,1.114-0.576,1.54
			c-0.384,0.426-0.855,0.639-1.414,0.639c-0.405,0-0.72-0.108-0.942-0.325c-0.224-0.216-0.335-0.527-0.335-0.932
			c0-0.489,0.167-0.932,0.502-1.331c0.336-0.398,0.747-0.652,1.236-0.765c-0.028,0-0.07-0.01-0.126-0.031s-0.104-0.031-0.146-0.031
			c-0.712,0-1.438,0.517-2.179,1.55s-1.494,2.877-2.263,5.53l-0.921,3.583h-2.954l2.556-9.05c0.069-0.223,0.104-0.44,0.104-0.649
			c0-0.265-0.111-0.398-0.335-0.398c-0.266,0-0.503,0.126-0.712,0.377c-0.21,0.251-0.427,0.678-0.649,1.278l-0.398,1.068h-0.398
			l0.566-1.592c0.517-1.438,1.479-2.158,2.891-2.158c1.075,0,1.613,0.565,1.613,1.697c0,0.405-0.056,0.817-0.168,1.236l-0.167,0.67
			c0.517-1.327,1.044-2.259,1.581-2.796c0.538-0.538,1.184-0.807,1.938-0.807C317.419,37.771,317.834,37.929,318.135,38.243z"/>
		<path fill="#333333" d="M320.89,47.639c0,0.349,0.147,0.523,0.44,0.523c0.433,0,0.852-0.551,1.257-1.655l0.377-1.006h0.398
			l-0.524,1.53c-0.265,0.782-0.649,1.337-1.151,1.665c-0.503,0.328-1.048,0.493-1.635,0.493c-0.628,0-1.104-0.165-1.424-0.493
			c-0.322-0.328-0.482-0.786-0.482-1.372c0-0.433,0.084-0.922,0.252-1.466l3.289-10.936c0.069-0.251,0.104-0.447,0.104-0.587
			c0-0.279-0.108-0.481-0.325-0.607c-0.217-0.125-0.583-0.188-1.1-0.188l0.146-0.44c0.964-0.014,1.83-0.091,2.598-0.23
			c0.769-0.139,1.522-0.349,2.263-0.628l-4.399,14.874C320.918,47.296,320.89,47.471,320.89,47.639z"/>
		<path fill="#333333" d="M335.093,45.501h0.398l-0.503,1.53c-0.251,0.796-0.625,1.354-1.121,1.676
			c-0.495,0.321-1.044,0.482-1.645,0.482c-0.866,0-1.417-0.321-1.654-0.964c-0.112-0.251-0.168-0.544-0.168-0.88
			c0-0.405,0.084-0.901,0.251-1.487l0.021-0.084c-0.531,1.188-1.093,2.053-1.687,2.598c-0.594,0.545-1.303,0.817-2.126,0.817
			c-0.741,0-1.341-0.245-1.802-0.733s-0.691-1.222-0.691-2.2c0-1.131,0.293-2.364,0.88-3.698c0.586-1.333,1.41-2.465,2.472-3.394
			s2.27-1.393,3.624-1.393c0.656,0,1.083,0.237,1.278,0.712l0.942-3.562c0.07-0.251,0.105-0.447,0.105-0.587
			c0-0.279-0.108-0.481-0.325-0.607c-0.217-0.125-0.583-0.188-1.1-0.188l0.126-0.44c0.963-0.014,1.84-0.091,2.629-0.23
			c0.789-0.139,1.547-0.349,2.272-0.628l-4.105,14.874c-0.07,0.196-0.105,0.384-0.105,0.566c0,0.321,0.133,0.481,0.398,0.481
			c0.21,0,0.419-0.122,0.629-0.366c0.209-0.245,0.426-0.674,0.649-1.289L335.093,45.501z M332.475,38.986
			c-0.154-0.489-0.434-0.733-0.838-0.733c-0.601,0-1.226,0.429-1.875,1.288s-1.194,1.945-1.635,3.258
			c-0.439,1.313-0.659,2.612-0.659,3.896c0,0.489,0.052,0.852,0.157,1.089c0.104,0.238,0.275,0.356,0.513,0.356
			c0.279,0,0.607-0.206,0.984-0.618c0.378-0.412,0.771-1.009,1.185-1.792c0.411-0.782,0.785-1.71,1.12-2.786L332.475,38.986z"/>
	</g>
	<g>
		<path fill="#333333" d="M350.884,38.578c0.384,0.496,0.576,1.232,0.576,2.21c0,1.131-0.252,2.357-0.755,3.677
			c-0.502,1.32-1.222,2.437-2.157,3.352c-0.936,0.915-2.012,1.373-3.227,1.373c-0.419,0-0.785-0.123-1.1-0.367
			s-0.534-0.59-0.66-1.037l-1.78,1.445l-0.314-0.146c0.168-0.349,0.3-0.754,0.398-1.215l3.666-12.947
			c0.056-0.182,0.084-0.37,0.084-0.566c0-0.279-0.105-0.485-0.314-0.618c-0.21-0.133-0.573-0.199-1.09-0.199l0.105-0.44
			c0.739-0.014,1.403-0.091,1.989-0.23c0.587-0.139,1.152-0.349,1.697-0.628l-2.702,9.888c0.656-1.508,1.302-2.601,1.938-3.279
			c0.636-0.677,1.316-1.016,2.043-1.016C349.965,37.834,350.499,38.083,350.884,38.578z M347.416,47.314
			c0.671-0.929,1.212-2.057,1.624-3.383s0.618-2.528,0.618-3.604c0-0.6-0.088-1.054-0.262-1.362
			c-0.175-0.307-0.416-0.461-0.723-0.461c-0.56,0-1.233,0.615-2.022,1.844s-1.497,2.744-2.126,4.546l-0.712,2.661
			c0.167,0.419,0.373,0.716,0.618,0.891c0.244,0.175,0.534,0.262,0.869,0.262C346.041,48.707,346.746,48.243,347.416,47.314z"/>
		<path fill="#333333" d="M361.851,39.531c0,1.327-0.412,2.863-1.236,4.609c-0.824,1.746-1.787,3.31-2.891,4.692
			c-1.299,1.62-2.675,2.779-4.127,3.478c-0.74,0.349-1.348,0.524-1.822,0.524c-0.294,0-0.541-0.077-0.744-0.23
			c-0.202-0.154-0.304-0.363-0.304-0.628c0-0.293,0.112-0.524,0.335-0.691c0.224-0.167,0.489-0.251,0.796-0.251
			c0.294,0,0.576,0.073,0.849,0.22c0.272,0.146,0.569,0.346,0.891,0.597c1.089-0.587,2.137-1.425,3.143-2.514l-1.551-9.385
			c-0.069-0.433-0.153-0.733-0.251-0.901s-0.237-0.251-0.419-0.251s-0.367,0.136-0.556,0.409c-0.188,0.272-0.415,0.779-0.681,1.519
			L353.01,41.5h-0.397l0.523-1.529c0.488-1.425,1.292-2.137,2.409-2.137c0.447,0,0.785,0.14,1.016,0.419s0.395,0.782,0.493,1.508
			l1.068,7.877c0.768-1.062,1.431-2.175,1.99-3.342c0.558-1.166,0.949-2.322,1.173-3.467c-0.419-0.223-0.789-0.5-1.11-0.828
			s-0.481-0.694-0.481-1.1c0-0.321,0.101-0.58,0.304-0.775c0.202-0.195,0.457-0.293,0.765-0.293
			C361.487,37.834,361.851,38.4,361.851,39.531z"/>
	</g>
	<path fill="#336299" d="M227.218,78.241c-3.055,0-5.453,0.655-7.854,1.963c0-6.982,0-13.309,0.22-15.491l-14.621,2.618v1.309
		l1.526,0.218c1.962,0.436,2.62,1.526,3.052,4.145c0.44,5.238,0.22,33.169,0,37.752c3.929,0.873,8.075,1.529,12.223,1.529
		c11.565,0,18.548-7.202,18.548-18.55C240.311,84.789,234.638,78.241,227.218,78.241 M222.198,109.882c-0.873,0-1.966,0-2.617-0.217
		c-0.221-3.055-0.437-15.931-0.221-27.277c1.311-0.437,2.183-0.656,3.274-0.656c4.804,0,7.423,5.674,7.423,12.655
		C230.056,103.119,226.781,109.882,222.198,109.882 M149.969,65.584h-38.407v1.963l2.183,0.219c2.835,0.436,3.928,2.181,4.362,6.327
		c0.657,7.855,0.438,22.041,0,28.803c-0.436,4.147-1.526,6.111-4.362,6.327l-2.183,0.439v1.745h24.659v-1.745l-2.619-0.439
		c-2.836-0.217-3.928-2.18-4.364-6.327c-0.219-2.838-0.437-7.421-0.437-13.093l5.237,0.218c3.274,0,4.8,2.619,5.455,6.327h1.965
		V80.861h-1.965c-0.656,3.709-2.181,6.327-5.455,6.327l-5.236,0.219c0-7.42,0.218-14.402,0.438-18.548h7.636
		c5.894,0,8.948,3.708,11.13,10.256l2.182-0.655L149.969,65.584z"/>
	<path fill="#336299" d="M162.407,77.804c10.912,0,16.367,7.42,16.367,17.239c0,9.384-6.111,17.241-17.022,17.241
		c-10.91,0-16.366-7.42-16.366-17.241C145.386,85.66,151.495,77.804,162.407,77.804 M161.752,79.987
		c-4.801,0-6.111,6.546-6.111,15.056c0,8.292,2.183,15.056,6.548,15.056c5.015,0,6.327-6.546,6.327-15.056
		C168.517,86.752,166.336,79.987,161.752,79.987 M243.146,95.262c0-8.946,5.673-17.458,16.803-17.458
		c9.162,0,13.529,6.766,13.529,15.712h-20.295c-0.22,8.074,3.709,13.966,11.565,13.966c3.491,0,5.237-0.87,7.421-2.399l0.87,1.09
		c-2.182,3.054-6.981,6.111-13.091,6.111C250.128,112.283,243.146,105.301,243.146,95.262 M253.184,91.116l10.256-0.219
		c0-4.364-0.655-10.91-4.364-10.91C255.367,79.987,253.4,86.096,253.184,91.116 M299.449,79.551
		c-2.618-1.092-6.108-1.747-10.037-1.747c-8.071,0-13.094,4.8-13.094,10.475c0,5.674,3.706,8.074,8.95,9.82
		c5.453,1.962,6.981,3.491,6.981,6.109c0,2.619-1.965,5.018-5.456,5.018c-4.145,0-7.201-2.399-9.601-8.947l-1.529,0.439l0.22,9.601
		c2.618,1.09,7.419,1.964,11.565,1.964c8.511,0,13.967-4.366,13.967-11.129c0-4.583-2.401-7.201-8.075-9.385
		c-6.11-2.399-8.29-3.926-8.29-6.764c0-2.837,1.967-4.801,4.585-4.801c3.926,0,6.544,2.4,8.511,8.293l1.525-0.436L299.449,79.551z
		 M207.142,78.678c-3.709-2.18-10.256-1.091-13.747,6.766l0.217-7.638l-14.619,2.836v1.309l1.527,0.219
		c1.966,0.219,2.837,1.309,3.056,4.147c0.436,5.237,0.218,14.403,0,18.985c-0.219,2.616-1.09,3.925-3.056,4.145l-1.527,0.219v1.745
		h20.293v-1.745l-2.618-0.219c-2.182-0.22-2.837-1.529-3.056-4.145c-0.436-4.147-0.436-12.439-0.217-17.676
		c1.09-1.529,5.891-2.837,10.255,0L207.142,78.678z"/>
	<path opacity="0.2" fill="none" stroke="#336299" stroke-width="2" stroke-miterlimit="10" d="M101.261,95.807H16
		c-8.285,0-15-6.716-15-15V23.558c0-8.284,6.715-15,15-15h124.261"/>
	<path opacity="0.2" fill="none" stroke="#336299" stroke-width="2" stroke-miterlimit="10" d="M272.717,8.558h124.263
		c8.283,0,15,6.716,15,15v57.249c0,8.284-6.717,15-15,15h-85.264"/>
</g>
</svg>
