<?xml version="1.0" encoding="utf-8"?>
<!-- Generator: Adobe Illustrator 16.0.0, SVG Export Plug-In . SVG Version: 6.00 Build 0)  -->
<!DOCTYPE svg PUBLIC "-//W3C//DTD SVG 1.1//EN" "http://www.w3.org/Graphics/SVG/1.1/DTD/svg11.dtd">
<svg version="1.1" id="Layer_1" xmlns="http://www.w3.org/2000/svg" xmlns:xlink="http://www.w3.org/1999/xlink" x="0px" y="0px"
	 width="1920px" height="233px" viewBox="0 0 1920 233" enable-background="new 0 0 1920 233" xml:space="preserve">
<path fill="#FFFFFF" d="M0,0v167.289c0.967-0.4,1.94-0.77,2.775-1.497c1.79-1.526,3.767-3.583,6.104-4.03
	c3.315-0.721,7.443-4.404,10.226-1.264c2.149,2.34-0.185,5.929-3.051,8.262c0.809,5.207,0.809,5.207-6.911,6.557
	c1.341,1.529,2.603,3.047,3.956,4.396c1.525,1.526-4.22,3.499-0.096,4.122c2.508,0.453,6.822-0.712,8.079-2.417
	c4.673-6.459,13.013-11.842,24.599-14.541c-0.455-2.781-8.533-1.443-5.032-5.476c2.778-3.412,7.726-3.412,11.846-0.271
	c2.245-0.633,4.489-1.439,6.733-2.161c2.964,0.617,6.083,0.47,9.193,0.317c5.556-0.266,11.1-0.533,15.76,3.551
	c3.14-0.533,6.367-0.989,9.514-1.437c0.633-0.623,1.352-1.168,2.065-1.788c3.051-5.842,9.688-5.311,15.431-6.289v-0.095
	c-8.251-6.728,0.543-8.343,4.854-11.397c5.109-4.032,8.891-9.514,15.441-12.393c-0.095-0.619,0.176-0.978,0.894-0.978
	c4.124-6.462,9.693-11.85,15.437-17.235c-5.648-4.404-7.358,1.791-10.861,3.142c-1.881,0.718-3.319,2.778-5.652,1.621
	c-2.335-1.353-1.71-3.421-0.36-5.03c2.333-3.047,5.48-5.836-1.077-8.08c-2.16-0.713-0.538-2.158,0.27-3.053
	c3.674-4.574,7.456-9.242,11.13-13.82c1.338-0.718,2.783-1.43,4.032-2.16c1.449-1.249,2.968-2.51,4.493-3.848
	c-0.538-2.334,1.706-3.688,2.875-5.573c0.896-2.786,1.973-5.556,6.017-6.288c1.526-1.789,3.131-3.673,4.753-5.47
	c2.148-6.641,5.743-12.387,13.375-15.608c1.789-2.071,4.576-1.621,6.911-1.982c-0.717-0.635-1.526-1.258-2.335-1.803
	c-1.792-0.262-3.506-0.53-5.205-0.805c0.533-2.51,2.962-2.51,5.205-2.777l1.072-0.09h1.09c0.796-3.499,3.487-4.31,7.173-3.769
	c4.673-0.091,9.514-1.524,13.644,1.62h0.089c7.455-6.199,9.34,1.698,13.375,3.859c7.719-0.186,14.182-5.479,22.433-3.955
	c6.648-3.592,14.815-0.545,21.726-3.41c1.437-0.449,4.039-0.449,4.488,1.701c0.545,1.977-1.261,2.874-3.051,3.503
	c-1.081,0.364-2.303,0.341-3.525,0.32c-2.133-0.038-4.264-0.077-5.63,1.919c2.506,1.353,2.071,3.597,2.155,5.569
	c1.616,0.989,2.237,2.337,2.161,4.042c-0.719,1.877-1.449,3.859-2.161,5.832c6.458,0,12.201-0.808,17.054-5.201
	c3.509-3.271,7.996-2.907,12.531-2.544c2.189,0.177,4.39,0.353,6.497,0.116c2.507,3.77,13.276,3.859,6.911,11.578
	c2.245,2.418,4.579,4.938,6.822,7.451c5.289,5.475,1.524,7.904-4.393,9.603c3.674,2.599-12.483,5.648,0.173,8.077
	c2.96,0.023,5.931-0.055,8.898-0.13c10.529-0.269,21.049-0.536,31.14,3.447c5.385-1.073,10.77-2.149,16.146-3.226
	c6.112-0.092,12.215-0.092,18.319-0.184c0.533,0.051,1.154-0.021,1.778-0.09c1.573-0.182,3.164-0.361,3.422,1.442
	c0.185,2.151-2.693,2.241-4.848,2.241c-1.069,0.808-2.063,1.615-3.051,2.429c1.795,0,3.771,0.081,5.746,0.177
	c7.179-1.703,14.541-0.177,21.811-0.177c4.397-1.261,10.417,1.169,13.372-3.862c3.771-0.715,7.63-1.35,11.49-2.068
	c2.428,0.421,4.974-0.173,7.523-0.77c4.514-1.057,9.035-2.115,12.936,2.482c2.335,0,4.58,0.078,6.833,0.078
	c1.099,0.236,2.075-0.611,3.079-1.453c1.696-1.432,3.477-2.859,6.076,0.923c1.246,1.791,6.367,0.808,9.15-1.261
	c-0.181-0.98,0-2.068-0.634-2.783c-1.249-1.529-5.822-2.337-2.149-4.754c2.783-1.884,4.579,0.533,5.475,2.774
	c0.534,1.526,1.251,2.972,1.982,4.497c3.866-2.498,6.984-0.877,10.104,0.744c2.59,1.348,5.184,2.697,8.2,1.674
	c1.979-0.892,4.039-1.702,6.103-2.51c0.096-1.261,0.176-2.507,0.36-3.672c-0.185-0.639-0.09-1.264,0.095-1.887l-0.813,0.173
	c-3.053-0.718-5.212,1.075-7.982,2.244c-0.457-5.743,3.859-6.104,8.34-6.372c-0.807-1.789-1.615-3.771-2.334-5.573
	c-8.077-2.769-16.688-1.249-24.951-3.669c9.245-1.168,18.399-2.152,27.646,0c4.314-0.19,8.61-0.361,12.923-0.545
	c1.705-1.792,3.411-3.676,5.027-5.563c6.646-0.619,11.13-4.217,15.797-7.719c3.052-0.719,6.015-1.437,8.97-2.068
	c3.77-3.317,8.534-4.035,13.65-3.773c2.155-5.024,7.725-5.742,12.74-7.269c6.473-1.788,12.751-4.031,19.213-6.099
	c1.526-0.715,3.047-1.344,4.667-2.057c1.256-3.955,6.822-2.879,9.157-5.665c-3.323-5.824,0.089-7.63,6.281-7.896
	c2.836-1.745,5.665-3.058,8.733-3.058c1.99,0,4.081,0.552,6.341,1.893c2.459,1.493,5.364,1.208,8.293,0.926
	c1.982-0.193,3.975-0.387,5.85-0.028c0.009-0.035,0.028-0.055,0.037-0.093c2.341-0.356,4.5-0.716,6.834-1.076
	c0.911,0.635,2.966,0.423,5.028,0.217c4.411-0.444,8.869-0.892,2.323,6.877c3.956,0.179,7.814,0.352,11.135,2.238h24.419
	c0,0.635,0.083,1.165,0.083,1.71h-24.413c-1.951,0.404-3.992,0.277-6.029,0.152c-3.399-0.213-6.797-0.42-9.769,1.821
	c1.257,3.771-4.04,1.437-4.578,3.681c0.899,0.539,1.616,1.256,2.425,1.977c9.775,0.184,19.206,2.867,28.989,1.973
	c4.401-1.996,7.796-0.179,11.202,1.639c3.329,1.776,6.663,3.551,10.964,1.773c-6.913,4.486-13.37,1.789-19.927,0.357
	c-5.822-1.078-11.751-2.333-17.856-0.982c0.719,2.867-3.5,5.561,1.973,9.42c2.87,2.149-4.755,7.72-11.67,7.085
	c-0.534-0.083-1.168,0-1.605,0.274c0,1.529,0.356,2.963,2.147,3.77c0.575,0.578,1.839,0.229,3.101-0.121
	c2.273-0.631,4.548-1.26,2.818,3.534c-1.072,2.954,2.334,2.42,4.313,2.42c4.124,0.084,8.171,0.084,12.203,0.084
	c0.939,0.222,1.88-0.099,2.827-0.419c1.404-0.476,2.819-0.954,4.269,0.335c1.347,0,2.788,0,4.129-0.087
	c0.014-0.008,0.027-0.002,0.042,0.004c0.015,0.006,0.029,0.008,0.042,0c1.934-2.068,3.827-5.542,7.451-3.055
	c2.973,2.059-0.448,2.691-2.413,3.32c-1.526,1.254-3.147,2.422-4.673,3.686c0.269,2.694-0.633,5.109-2.244,7.442h6.557
	c1.605-5.916,5.746-2.786,9.156-1.621h0.08c5.48-1.431,11.762-1.791,13.744-7.708c2.867,1.432,3.86,0.081,4.298-2.068
	c-0.887-1.168-3.052-2.783-2.691-3.502c1.087-2.07,3.233-1.263,4.313,0.186c4.217,6.182,8.261,5.919,13.104,0.354
	c0.744-0.819,2.778-0.808,4.699-0.794c0.614,0.006,1.217,0.01,1.763-0.017c4.217-0.176,8.438-0.176,8.252,5.111
	c-0.083,4.853-4.304,3.782-7.708,4.763c-2.198,0.654-4.539,0.009-6.85-0.638c-3.734-1.047-7.386-2.091-10.21,2.351
	c1.431,0.713,2.957,1.339,4.481,2.057c4.673-0.807,9.34-1.436,14.007,0.361c-1.885,5.383-8.624,2.238-11.753,5.213
	c-1.206,0.452-2.45,0.164-3.663,0.467c-0.317,0.142-0.133,0.39-0.554,0.514c-0.9-0.041-1.751-0.124-2.649-0.104
	c-5.784,0.928-11.621,0.888-17.468,0.848c-4.069-0.029-8.14-0.061-12.202,0.236c-0.621-0.173-1.258-0.084-1.789,0.185
	c-0.903,5.657-8.797,5.123-11.315,9.341c3.763,0.08,7.533,0.266,11.315,0.436c7.056-2.839,14.452-2.545,21.839-2.248
	c4.719,0.186,9.437,0.373,14.06-0.256c4.849-2.426,9.845-2.158,15.069-1.893c3.089,0.156,6.26,0.317,9.528-0.084
	c-0.992,5.57-6.739,5.117-8.624,7.904c0.898,1.604,2.521,1.965,4.311,1.965c3.052,0.095,6.011,0.184,8.968,0.273
	c3.239-0.635,6.475-1.255,9.701-1.976c1.428,0,2.689-0.087,3.946-0.185c0.811-1.339,1.623-2.507,2.333-3.857
	c0.895-0.625,1.623-1.254,2.42-1.887c0.094-0.619-0.081-1.165-0.173-1.698c-1.613-1.272-3.773-0.248-5.815,0.778
	c-2.846,1.432-5.46,2.865-6.035-1.947c-0.32-2.671,3.888-2.59,7.992-2.506c1.674,0.031,3.333,0.063,4.663-0.093
	c0.537,0,1.079-0.276,1.529-0.542c0.627-0.623,1.338-1.35,1.979-1.977c0.712-1.621-0.28-4.574,2.867-4.485
	c3.052,0.173,1.789,2.96,2.333,4.667c2.244,0.18,4.402,0.269,6.726,0.361c6.649-0.093,13.291-0.093,19.925-0.093
	c5.745,2.427,10.239,9.421,18.323,3.675c5.2-1.606,5.743,3.859,10.226,4.221c-1.944,1.826-3.844,1.717-5.611,1.606
	c-0.763-0.046-1.5-0.095-2.204,0.015c-1.526,0-3.048,0-4.574-0.096c-0.717,0.716-1.524,1.351-2.338,1.979
	c-1.705,2.356-4.027,1.915-6.352,1.471c-1.837-0.352-3.678-0.7-5.215,0.329c-5.212,0.533-10.417,1.156-15.629,1.701
	c-0.809,0.088-1.526,0.088-2.417,0.186l0.359,0.352c1.434,1.252,2.872,2.602,4.313,3.865c0.176,2.412,1.072,4.221,4.58,3.488
	c2.058-6.102,6.277-7.705,12.47-3.943c1.79,1.076,3.409,2.154,5.742,2.244c12.927-2.877,25.846-7.63,38.598,0.449
	c1.428-0.178,3.05-0.276,4.479-0.36c2.164-0.089,4.137-0.274,6.292-0.446c2.908-2.732,6.309-2.306,9.702-1.879
	c1.634,0.205,3.263,0.41,4.838,0.263c4.308-0.446,8.793,0.358,12.746-2.071c1.832-0.914,3.857-0.842,5.902-0.772
	c1.953,0.065,3.923,0.132,5.761-0.658c3.687-0.179,7.366-0.452,11.051-0.716c7.174-3.238,15.336-0.631,22.882-2.867
	c2.418-0.729,2.2,2.322,0.224,3.849c-3.365,2.253-0.453,7.097-5.204,8.807c-5.79,0.712-11.717,1.604-17.463,2.417
	c0,0.54-0.079,1.166-0.079,1.792c5.465,0.089,10.853,0.089,16.375,0.185c11.616,1.076,22.439-0.271,31.151-7.817
	c1.609-7.171-7.05-4.122-9.789-6.995c0.824-2.96,2.96-2.43,5.103-1.898c1.823,0.45,3.649,0.897,4.687-0.793
	c-3.372-2.969-2.831-5.475,2.104-5.66c6.911-0.173,14.093-1.791,20.644,1.615c2.192-0.077,4.403-0.077,6.597-0.172
	c0.764-0.635,1.526-1.258,2.289-1.885c-0.402-1.803-3.687-4.401,0.764-5.117c4.622-0.811,3.77,2.784,4.033,5.025
	c0.764,0.36,1.577,0.533,2.338,0.902c0.713-0.811,1.478-1.621,2.206-2.336c-2.563-4.76,1.2-4.221,4.576-3.952
	c5.156-4.032,10.272-7.18,15.254,0.093c0.226,1.248,0.456,2.414,0.672,3.582c4.798,3.598,11.536,0.545,18.044,3.598
	c-5.431,3.236-14.85,0.895-14.316,8.885c0,0.453-4.753,2.417-4.314-0.809c0.371-2.693,2.66-5.385-2.373-4.936
	c-4.309,0.174-3.994,3.857-4.039,6.635c-0.719,1.443-1.481,2.79-2.244,4.134c1.385,5.657-7.084,16.067,9.963,13.909
	c4.532-0.533,0.264,3.41,1.307,5.121c1.521,0.09,3.045,0.262,4.623,0.447c2.016-2.885,5.145-2.703,8.275-2.521
	c2.712,0.158,5.43,0.314,7.432-1.521c0.403-2.149-7.19-2.241-1.979-5.562c5.969-2.068,11.891-4.127,17.862-6.288
	c0.807-1.165,1.615-2.411,2.424-3.586c-8.668-4.491-8.704-4.667-2.521-8.166c0.053-1.076,0.053-2.149,0.053-3.142
	c-0.586-2.06-6.777-0.533-3.943-4.578c3.718-5.296,7.225-0.629,10.809,0.361c3.811-1.174,7.579-2.513,11.715-1.621
	c6.685-0.176,13.326-0.361,19.976-0.439c2.822-0.098,5.604-0.188,8.436-0.282c1.788-0.447,3.631-0.888,5.47-1.431
	c7.093-5.293,13.324-2.6,19.392,1.615c1.528,0.098,3.1,0.098,4.657,0.176c1.04-1.791,3.019-2.057,4.983-2.238
	c3.684-2.697,7.271-1.621,10.821,0.182c2.598-2.068,5.213-5.29,7.675,0.096c1.429,0.713,2.877,1.338,4.263,1.961
	c0.674-0.078,1.306-0.176,1.975-0.176c3.319-3.499,7.366-2.596,11.397-1.431c0.854,0.081,1.711,0.176,2.519,0.266
	c0.764-0.266,1.48-0.716,2.247-0.993c3.362-1.768,6.931-1.422,10.495-1.075c2.756,0.265,5.508,0.534,8.168-0.173
	c3.5,0.625,6.955,1.248,10.457,1.883c2.422-1.353,4.846-2.691,7.27-4.047c-0.135-0.53-0.092-1.165,0.089-1.699
	c2.691-4.482,0.897-6.377-4.804-6.006h-15.931c1.884-4.205,4.646-4.121,7.161-4.035c0.656,0.023,1.299,0.047,1.904-0.009
	c3.77-1.341,7.586-2.694,11.4-4.035c8.615-5.929,20.822-3.595,29.618-9.155c5.253-0.096,10.501-0.186,15.71-0.275
	c6.281-3.77,12.475-7.897,22.663-3.319c-6.958,2.244-13.823,1.075-17.906,5.386c-5.702,0.095-11.536-0.186-15.978,3.856
	c0.314,10.324-10.366,6.915-16.247,9.427c-2.87,0.09-5.744,0.357-8.616,0.537c-2.422,4.041,0.045,6.464,3.995,4.393
	c8.256-4.393,15.078-0.713,22.392,1.174c0.854-0.813,1.707-1.439,2.605-2.246c1.615-0.627,3.232-1.166,4.846-1.881
	c-0.718-1.887-1.437-3.773-2.154-5.563c2.188-2.313,4.961-2.151,7.732-1.986c1.208,0.071,2.417,0.141,3.578,0.005
	c3.814-1.878,7.63-3.859,11.444-5.743c1.434-0.805,2.872-1.525,4.309-2.238c12.115-3.236,16.29-0.273,13.864,9.779
	c6.777,0.089,13.555,0.089,20.334,0.184c5.474-0.184,7.986-2.974,7.898-7.641c5.068,1.713,1.613,6.476,5.474,8.002
	c0.808-0.188,1.661-0.28,2.469-0.361c2.751-3.481,4.853-1.979,7.095-0.473c1.342,0.896,2.734,1.797,4.349,1.63
	c3.067-0.271,6.088,0.323,9.169,0.92c3.993,0.773,8.096,1.544,12.553,0.431c3.814-0.981,6.777,3.141,7.676,6.821
	c0.627,0.183,1.301,0.36,1.973,0.447c4.531,1.169,9.289,2.151,13.643,3.771c4.891,1.976,8.706,3.594,13.777-0.531
	c2.919-2.334,9.648-4.22,6.687,3.848c-0.226,0.635,2.244,1.974,3.814,3.237c-8.829,1.168-17.214,0.052-25.494-1.067
	c-6.412-0.865-12.762-1.73-19.204-1.535c-1.391,0-2.783,0-4.219,0.093c-0.09,0.438-0.269,0.895-0.448,1.341
	c1.349,2.51,3.95,5.297-1.887,6.367c-3.454,0.637-4.441,3.15-4.845,5.841c0.808,0.54,1.615,1.073,2.378,1.618
	c5.702-0.545,11.311,0.621,15.126-5.746c2.286-3.77,9.469-2.334,14.359,0.09c4.533,0,9.021,0.084,13.552,0.084
	c1.618,0.092,3.277,0.092,4.893,0.092c2.737-1.168,5.117-3.406,8.616-1.881c3.188,1.07,2.021,3.589,2.289,5.564
	c2.963,0.986,5.16,3.586,8.977,2.697c10.145-2.068,4.756,3.675,4.713,6.816c1.436,0,2.917,0.098,4.354,0.173
	c1.838,0.095,3.68,0.185,5.519,0.185c5.924,0.176,11.625-0.805,17.278-2.158c3.546,1.538,7.225,2.158,11.221,1.616
	c2.059-2.343,4.665-1.853,7.277-1.362c2.285,0.431,4.572,0.857,6.499-0.613c1.346-3.053-4.308-7.443,2.559-9.329
	c1.425-0.31,3.033-0.173,4.645-0.034c3.565,0.299,7.15,0.597,8.818-3.912c-2.603-0.99-5.204-1.982-8.618-3.323
	c4.647-2.81,9.035-2.014,13.496-1.22c3.813,0.68,7.682,1.358,11.818-0.211c-2.559,4.754-9.694,5.291-7.675,10.402
	c2.021,4.313-2.514,3.326-4.624,4.217c-1.526,1.264-3.052,2.429-4.576,3.687c2.064,4.038,1.392,6.733-4.624,6.911
	c-6.103,0-12.159,0.269-18.265,0.453c-0.629,0.174-1.256,0.361-1.842,0.533c0.765,1.705,1.482,3.592,2.246,5.387
	c0.898,0.623,1.749,1.258,2.646,1.887c2.154,0,4.264,0.178,6.418,0.262c2.961-1.342,5.926-2.777,8.888-4.125
	c6.686-2.244,13.597-3.678,20.823-3.41c0.627,0,1.301-0.095,1.885-0.268c1.975-4.125,6.328-3.326,10.276-3.687
	c0.871-0.044,1.781,0.017,2.688,0.075c2.691,0.176,5.405,0.346,7.319-2.135c0.584-3.687,2.784-5.027,5.161-3.236
	c2.423,1.981,2.065,4.578,1.618,7.006c1.028,4.131,6.685,3.237,8.974,5.92c12.341,0.635,22.17,5.302,29.98,13.385
	c1.613,0.436,3.23,0.891,4.844,1.341c2.289-0.808,4.442-1.165,6.104,0.981c1.66,1.583,3.402,1.09,5.147,0.597
	c1.222-0.343,2.446-0.692,3.647-0.323c6.194-1.615,11.13,1.079,16.246,3.323c1.975-2.513,3.413-6.202,8.168-4.038
	c5.16,2.336,2.602,6.461,2.874,10.044c0.404,2.151,0.857,4.28-1.697,5.807c0.008,0.018,0.029,0.018,0.036,0.034
	c-1.077,1.526-2.827,2.871-2.11,4.934c4.487,0.899,10.097,10.413,12.924-1.246c-3.543-3.326-2.915-7.814-3.41-11.412
	c-0.657-4.766,2.512-4.422,5.764-4.078c1.645,0.176,3.312,0.346,4.516-0.139c1.614-1.792,6.238-4.396,5.116-0.984
	c-2.555,7.99,1.025,6.88,4.549,5.77c1.427-0.447,2.845-0.895,3.844-0.741c0.642-0.136,1.253,0.421,1.843,0.975
	c0.967,0.917,1.867,1.832,2.733-0.349c3.322-8.346,7.27-4.751,11.533-0.903c2.199,2.79,5.386,3.86,9.112,3.955
	c8.527-0.453,9.424,4.22,8.93,9.695c2.341,2.181,5.158,2.071,7.988,1.962c1.131-0.044,2.264-0.09,3.366,0.014
	c-0.36-2.16-1.213-4.307-0.942-6.459c0.223-2.16-2.109-6.022,2.514-5.838c3.723,0,8.526,1.618,4.98,6.725
	c-1.437,1.174-1.66,2.432,0.135,3.597c3.86,5.48,7.719,2.149,11.579,0c3.229-4.483,4.623-4.218,9.559,1.615
	c5.653,0.629,12.388,0.813,6.194,8.083c2.422,1.701,1.973,3.133-0.988,3.764c-3.859,0.816-6.328,2.873-7.988,5.746
	c7.899-1.615,12.88,4.752,20.375,5.207c5.025,0.357,5.295,3.859,1.257,7.531c-2.291,1.977-8.752,2.161-6.193,7.273
	c3.23,1.081,6.461,2.255,9.692,3.498c2.137,0.814,3.276-1.016,4.964-1.373c0.298-0.248,0.777-0.112,0.961-0.6
	c-6.148-4.396-4.624-6.822,2.378-8.882c2.84-0.808,5.415-0.286,7.957,0.233c1.995,0.41,3.971,0.816,6.045,0.58
	c-0.091-5.213,0.764-9.072,9.066-8.082c2.693,0.357,5.924-2.239,8.884-3.502c2.65-2.52,6.328-2.52,10.101-3.231
	c-0.495,3.231-2.918,4.31-5.656,5.204c-3.634,3.322-7.314,6.637-10.949,10.05c-0.09,1.8-0.181,3.595-0.226,5.481
	c1.93,0.715,2.379,2.244,2.559,3.764c3.275-2.51,6.372-6.098,11.311-1.977c1.112,0.375,2.346,0.326,3.581,0.283
	c2.055-0.078,4.121-0.15,5.663,1.693c2.485-0.17,4.975,0.19,7.46,0.551c4.064,0.592,8.129,1.18,12.195-0.551
	c-3.007-4.482-9.515-2.51-13.326-5.29c-2.964-0.808-5.926-1.622-8.888-2.429c-4.309,0-8.752,0.273-12.251-3.053
	c2.907-3.273,5.177-1.816,7.406-0.357c1.551,1.016,3.086,2.033,4.8,1.445c3.992-0.096,8.123-0.902,11.579,1.699
	c7.854-1.342,15.841-3.859,22.528,2.426c3.725-0.721,7.001-3.412,11.308-2.16c2.291,0.727,4.626,1.35,6.912,2.068
	c1.797,0.262,3.995,0.545,3.457,2.602c-0.675,2.516-3.186,3.049-5.968,3.049c0.044,0.638,0.088,1.35,0.088,1.979
	c0.911,0.133,1.869,0.109,2.823,0.09c2.297-0.061,4.583-0.118,6.196,1.977c3.144,1.883,6.733,3.504,6.598,7.444
	c-3.768,3.233-9.063,2.603-13.508,4.042c0.091,0.631,0.181,1.168,0.269,1.8c3.008,0.087,5.97,0.087,8.931,0.182
	c1.571,0.623,3.1,1.246,4.624,1.962c7.494,0.184,4.712,3.149,2.243,6.022c-0.762,1.076-1.571,2.241-2.334,3.317
	c4.02,1.442,6.359-0.574,8.693-2.584c2.039-1.758,4.078-3.518,7.24-2.972c5.384-1.064,10.74-2.024,16.138-1.103V0H0z
	 M24.133,166.427c1.165-3.771,4.128-3.589,7.367-4.402C30.594,166.787,27.718,166.787,24.133,166.427z M270.334,31.709
	c-1.884,0.078-3.768-0.185-4.219-2.256c0.673-1.586,1.657-2.709,3.608-2.709c0.137,0,0.279,0.006,0.427,0.016
	c2.07,0.09,3.597,1.084,3.508,3.063C273.658,31.43,271.86,31.614,270.334,31.709z M299.232,33.671
	c-1.429-0.084-3.131-0.173-2.598-1.884c0.353-1.431,1.441-2.776,2.694-5.027c2.422,2.879,3.763,3.775,3.763,4.67
	C303.091,33.408,301.127,33.671,299.232,33.671z M330.383,55.669c-0.533-0.188-0.629-1.976-0.096-2.429
	c1.361-1.315,2.718-1.988,4.098-1.988c1.447,0,2.916,0.742,4.434,2.262C336.392,55.854,333.974,57.643,330.383,55.669z
	 M346.988,70.395c-0.276,3.053-1.527,5.744-4.855,7.348c-2.416,0-6.181,1.883-6.91-1.432c-0.534-2.057,2.878-1.98,5.027-2.057
	c0.185-2.16,1.087-3.859,3.956-4.142c-0.451-2.057-5.124-1.07-3.956-3.142c0.682-1.287,2.7-2.316,4.728-2.316
	c0.652,0,1.308,0.107,1.918,0.346C350.848,66.526,347.442,68.589,346.988,70.395z M353.359,45.968h13.554
	C362.696,46.421,358.203,49.381,353.359,45.968z M413.323,74.612c-3.051,2.772-6.646,5.013-12.392,5.29
	c1.795-2.16,3.32-3.951,4.762-5.648c-1.895-1.537-6.194-1.263-5.025-4.765c0.239-0.729,2.096-1.46,3.174-1.46
	c0.115,0,0.22,0.009,0.314,0.026c2.878,0.626,1.444,3.049,1.976,4.661c2.071-1.078,3.77-2.867,6.558-2.322
	c1.706,0.263,4.931,0.352,4.931,0.886C418.074,73.709,415.382,73.978,413.323,74.612z M620.835,9.803
	c2.226-2.35,4.287-3.176,6.261-3.176c2.329,0,4.534,1.151,6.735,2.303c2.547,1.332,5.09,2.666,7.821,2.213
	C634.837,13.745,630.707,13.387,620.835,9.803z M669.036,8.546c-0.9,0-1.887-0.36-4.405-0.987c2.97-0.762,5.872-1.716,6.857-1.716
	c0.176,0,0.292,0.032,0.334,0.101C673.972,8.73,670.919,8.449,669.036,8.546z M682.408,16.354c-0.915-0.209-1.855,0.075-2.823,0.357
	c-1.504,0.441-3.073,0.883-4.711-0.536c1.149-1.377,2.248-1.906,3.319-1.906C679.631,14.27,681.02,15.224,682.408,16.354
	c4.488-1.526,8.08-3.86,11.303-7.905C694.07,18.148,692.282,19.227,682.408,16.354z M673.068,53.064
	c1.838-1.019,3.34-1.434,4.639-1.434c2.13,0,3.711,1.115,5.33,2.51C679.713,55.309,676.931,55.309,673.068,53.064z M763.005,36.813
	c0.541-0.263,1.35-0.809,2.254-0.809c1.604,0,2.769,0.906,1.961,2.248c-0.264,0.542-1.887,0.899-2.775,0.805
	C763.458,38.979,762.286,38.522,763.005,36.813z M747.978,33.637c2.296,0.002,4.231,0.756,5.872,3.273
	c-5.2,1.428-7.894-0.36-11.664-2.43C744.337,34.059,746.259,33.637,747.978,33.637z M752.605,49.564
	c-3.955,1.974-5.931-0.089-7.907-3.674c1.829-0.295,3.505-0.664,4.97-0.664c1.703,0,3.125,0.499,4.181,2.189
	C754.207,47.854,753.317,49.297,752.605,49.564z M700.36,52.527c-0.719,0.808-1.975,1.613-3.237,1.878
	c-0.72,0.28-2.244,0.095-1.792-1.431c0.81-1.525,2.334-2.334,4.122-2.429c0.007-0.003,0.013-0.003,0.022-0.003
	C699.773,50.543,700.71,52.176,700.36,52.527z M729.626,48.847c-7.725-0.185-15.444-0.897-22.804-3.317
	c-1.98-0.185-5.918-0.273-4.846-2.158c1.069-1.684,2.413-2.293,3.868-2.293c1.966,0,4.134,1.113,6.094,2.195
	c3.266,1.785,6.614,1.289,9.938,0.793c1.876-0.279,3.747-0.559,5.59-0.432c2.784-0.534,4.854,0.729,7.09,1.71
	c2.06-0.089,5.034-1.434,5.296,1.341c0.173,2.52-2.877,2.256-5.026,2.161H729.626z M741.114,58.625
	c-2.787,0-5.743,1.166-8.719-1.165c2.025-2.123,4.399-2.619,6.87-2.619c2.03,0,4.125,0.338,6.146,0.378
	c2.79-0.268,5.668-0.533,11.054,1.977C749.55,57.818,745.411,58.271,741.114,58.625z M764.626,52.527
	c-2.514-0.182-4.491-1.078-4.219-3.412c0.131-1.575,1.37-1.855,2.729-1.855c0.496,0,1.009,0.038,1.49,0.061
	c1.798,0.096,4.216,0.451,4.491,2.155C769.382,51.898,766.24,51.633,764.626,52.527z M797.342,51.691
	c0.241,0,0.495,0.037,0.762,0.115c0.629,0.266,1.341,1.434,1.26,2.064c-0.272,1.252-1.349,2.34-3.147,1.703
	c-0.711-0.266-1.069-1.246-1.612-1.792C795.349,52.524,796.208,51.691,797.342,51.691z M785.449,39.864
	c-0.361,0.816-1.973,1.353-2.879,1.809c-1.701-0.635-3.938-0.188-3.051-2.071c0.358-0.902,2.158-1.525,3.411-1.711
	c0.165-0.022,0.34-0.034,0.522-0.034C784.662,37.856,786.072,38.387,785.449,39.864z M786.526,69.131
	c2.099-2.045,3.971-2.671,5.95-2.671c1.318,0,2.686,0.277,4.199,0.601C793.699,69.76,791.194,71.104,786.526,69.131z
	 M788.315,62.396c2.191-2.648,4.851-3.324,7.588-3.324c1.428,0,2.875,0.186,4.288,0.367c1.656,0.216,3.265,0.432,4.735,0.352
	C799.445,60.604,793.884,61.502,788.315,62.396z M808.601,65.447c1.338-0.666,2.636-0.885,4.217-0.885
	c1.823,0,4.021,0.291,7.096,0.524C813.811,67.061,811.292,66.971,808.601,65.447z M845.892,93.169
	c-1.021-0.314-2.023-0.626-2.825-0.343c1.011-2.061,2.247-2.911,3.691-2.911c1.128,0,2.387,0.519,3.764,1.388
	C849.65,94.311,847.742,93.74,845.892,93.169z M850.97,66.348c-1.705,0.179-3.59,0.179-4.493-1.699
	c1.455-2.209,3.354-2.088,5.289-1.97c1.062,0.065,2.131,0.13,3.147-0.188C855.457,65.99,852.952,66.08,850.97,66.348z
	 M872.149,96.957c2.609-3.534,5.227-4.968,8.961-4.968c0.633,0,1.295,0.043,1.995,0.121
	C880.771,96.141,877.36,96.599,872.149,96.957z M930.369,60.682c1.183,0,2.358,0.295,3.537,0.635c0.277,0.096,0.54,1.351,0.18,1.621
	c-2.424,1.977-5.028,2.149-8.616,0C927.127,61.228,928.752,60.682,930.369,60.682z M886.964,56.211
	c-0.636,0.176-1.529-0.637-2.782-1.26c1.35-0.811,2.146-1.616,3.051-1.711c0.021-0.003,0.042-0.006,0.063-0.006
	c0.542,0,1.314,0.923,1.91,1.358C888.49,55.123,887.853,56.119,886.964,56.211z M904.465,95.431
	c-1.066-0.813-2.494-0.199-3.909,0.412c-2.167,0.943-4.307,1.884-5.06-2.296c1.154-2.824,2.428-3.848,3.771-3.848
	c1.774,0,3.666,1.788,5.559,3.576c3.949-1.431,8.077-3.326,13.278,1.076C912.992,95.97,908.869,96.423,904.465,95.431z
	 M917.306,91.845c3.612-2.567,5.233-5.216,9.463-5.212c0.074,0,0.15,0,0.225,0C924.577,88.34,925.016,93.091,917.306,91.845z
	 M939.958,87.529c-0.666,0-1.384-0.896-2.057-1.35c0.718-0.531,1.391-1.432,2.242-1.604c0.033-0.006,0.066-0.01,0.098-0.01
	c0.576,0,1.406,0.754,2.553,1.348C941.536,86.633,940.771,87.439,939.958,87.529z M936.283,76.574
	c2.912-0.171,6.292-1.885,8.393,1.525c-2.915,3.598-5.698,0.545-8.436,0.098c-2.694,2.689-6.104,2.781-9.777,1.974
	c-1.352-1.261-2.615-2.507-4.045-3.768c-3.769-0.722-8.968,0.9-10.418-4.938c3.783,0.174,7.194,0.271,10.597,0.456
	c5.514-1.278,10.863-3.276,17.12-3.276c1.686,0,3.437,0.146,5.276,0.486c-2.694,4.578-9.828,2.149-10.905,6.728
	C934.803,76.139,935.522,76.311,936.283,76.574z M940.363,64.193c-1.386-0.805-2.289-2.519-1.245-3.326
	c2.256-1.702,4.613-2.299,7.02-2.299c3.04,0,6.162,0.957,9.267,1.863C950.651,62.766,947.197,68.413,940.363,64.193z
	 M981.835,76.934c-0.761-0.083-1.885-1.787-1.664-2.148c2.562-3.594,6.601-4.128,12.302-4.128
	C989.105,74.254,987.535,78.284,981.835,76.934z M1004.674,70.112c-0.219,0.903-0.796,1.71-0.763,1.624
	c-2.867,0-3.765-0.545-3.36-1.624c0.264-0.623,1.43-1.243,2.335-1.431c0.165-0.026,0.331-0.041,0.495-0.041
	C1004.27,68.641,1005.018,69.059,1004.674,70.112z M1017.516,64.106c-0.451,1.075-1.166,2.333-2.194,2.78
	c-1.122,0.534-1.481-0.631-1.219-1.973c0.534-0.623,1.347-1.525,2.155-2.518C1016.706,62.938,1017.687,63.746,1017.516,64.106z
	 M1025.594,64.464c-2.334-0.095-4.221-1.165-4.625-3.236c-0.313-1.526,1.169-2.244,2.65-2.244c2.377,0.095,4.031,1.165,4.666,3.236
	C1028.335,63.835,1027.074,64.464,1025.594,64.464z M1040.991,83.762c-0.28,0.719-1.493,1.345-2.384,1.438
	c-1.572,0.357-2.959-0.451-3.143-1.714c-0.268-1.884,1.71-1.341,3.007-1.526C1039.545,82.32,1041.756,81.697,1040.991,83.762z
	 M1052.963,64.369c-0.887-0.078-1.744-0.623-2.413-0.98c-0.305-1.275,0.353-1.985,1.377-1.985c0.063,0,0.128,0.003,0.193,0.009
	c0.892,0.185,1.966,0.719,2.368,1.431C1055.252,63.922,1053.955,64.464,1052.963,64.369z M1124.369,64.464
	c-4.711,7.534-12.077,5.746-20.823,4.125c5.647-3.142,11.796-1.073,16.112-4.125c0.492-2.789-2.558-3.236-6.244-5.919
	c1.66,0.207,3.334,0.133,4.872,0.052c0.805-0.038,1.569-0.081,2.272-0.081C1123.673,58.516,1125.592,59.318,1124.369,64.464z
	 M1132.718,76.672c-0.544,1.07-1.481,1.973-2.559,2.691c-0.405,0.262-1.616-0.453-2.425-0.629c1.027-1.255,2.064-2.424,2.693-3.053
	c0.614-0.238,1.094-0.34,1.458-0.34C1132.877,75.342,1133.012,76.078,1132.718,76.672z M1162.869,74.156
	c-2.777,2.662-6.052,2.328-9.444,1.996c-1.415-0.141-2.851-0.277-4.28-0.201c1.127-1.731,2.719-1.717,4.258-1.699
	c0.854,0.006,1.691,0.018,2.427-0.274c1.394-2.054,1.292-5.724,4.654-5.724c0.755,0,1.683,0.186,2.841,0.615
	C1168.938,70.929,1163.771,72.451,1162.869,74.156z M1195.188,74.518c-6.597,3.319-13.234,1.26-19.881,0.629
	c5.249-2.695,11.488-0.361,16.565-3.226c-0.066-4.457,1.566-5.591,3.8-5.591c1.164,0,2.489,0.307,3.823,0.615
	c1.626,0.381,3.262,0.756,4.623,0.57C1199.855,68.773,1195.412,69.76,1195.188,74.518z M1359.623,64.369
	c-4.624-0.447-9.245-1.07-13.824-1.604c0-0.453,0.045-0.903,0.092-1.449c4.666-0.623,9.289-1.43,13.911-1.976
	c0.136-0.011,0.271-0.017,0.404-0.017c1.888,0,3.456,1.121,3.456,2.711C1363.706,64.018,1361.596,64.554,1359.623,64.369z
	 M1402.348,74.254c-2.83,2.865-6.193,2.32-10.412,0.436c2.147-2.25,4.184-3.894,6.935-3.894c0.755,0,1.564,0.124,2.444,0.396
	C1402.615,71.561,1403.425,73.262,1402.348,74.254z M1437.326,82.681c-2.682-0.341-5.319-0.685-7.65-0.003
	c5.7-5.374,13.778-2.954,21.453-4.936C1447.578,83.97,1442.381,83.324,1437.326,82.681z M1443.14,94.712
	c2.116-0.874,3.907-2.175,6.215-2.175c1.021,0,2.143,0.254,3.436,0.914C1449.156,96.064,1446.417,95.693,1443.14,94.712z
	 M1467.061,85.199c1.221-3.555,3.991-3.534,6.738-3.514c1.698,0.014,3.389,0.028,4.707-0.799c-1.617,4.762-4.713,7.453-10.457,6.818
	C1465.67,87.439,1466.61,86.537,1467.061,85.199z M1484.254,103.121c-3.24,0.839-6.311,1.682-8.801-2.043
	c-2.737-1.609-5.879-2.059-9.155-2.059c-2.153,0-5.026-0.186-4.623-2.52c0.181-1.165,3.096-2.057,4.803-3.129
	c2.513-1.469,5.11-1.918,7.748-1.918c3.018,0,6.084,0.591,9.124,0.926c-0.031,0.072-0.128,0.031-0.16,0.104
	c7.471,0.808-1.065,8.662,6.121,9.957C1487.619,102.256,1485.914,102.688,1484.254,103.121z M1540.708,94.539
	c-0.577-1.336,0.379-1.855,1.598-1.855c0.59,0,1.242,0.122,1.812,0.33c0.897,0.357,1.526,1.07,2.423,1.698
	C1544.25,95.609,1541.423,96.238,1540.708,94.539z M1567.679,112.842c2.896-0.787,5.713-1.143,8.461-1.143
	c6.96,0,13.479,2.285,19.724,5.631C1585.719,118.856,1577.059,114.278,1567.679,112.842z M1608.741,122.171
	c-0.225,0.638-1.481,1.526-2.201,1.45c-1.927-0.098-3.363-1.09-3.409-2.878c-0.09-1.622,1.661-1.622,2.873-1.981
	C1608.202,119.307,1609.324,120.383,1608.741,122.171z M1626.288,114.544c-0.896,0-2.108-0.534-2.514-1.169
	c-0.583-1.072,0.36-1.698,1.932-1.973c0.582,0.543,1.661,0.9,2.108,1.615C1628.577,114.189,1627.275,114.637,1626.288,114.544z
	 M1767.925,172.084c-6.687,0.807-3.904-5.657-9.514-8.176c2.776-0.251,5.15-0.779,7.05-0.779c2.15,0,3.693,0.678,4.527,3.208
	C1770.617,168.313,1770.752,171.723,1767.925,172.084z M1794.716,156.466c-0.897-0.093-2.019-0.634-2.422-1.353
	c-0.808-1.246,0.538-1.342,1.885-1.604c0.629,0.357,1.75,0.709,2.063,1.338C1796.825,155.832,1795.839,156.637,1794.716,156.466z
	 M1830.484,168.486c-0.646-0.346-1.66,0.233-2.675,0.808c-1.878,1.056-3.762,2.117-3.384-2.597c3.157-2.82,6.816-3.631,10.775-3.631
	c1.84,0,3.745,0.173,5.694,0.403C1839.731,169.294,1835.96,170.289,1830.484,168.486z M1848.655,175.276
	c-1.275-0.424-2.503-0.848-3.765-0.687c-2.87-0.084-4.532-1.156-4.488-3.77c1.906-1.336,3.477-1.85,4.854-1.85
	c4.174,0,6.558,4.708,10.942,5.446C1853.238,176.75,1850.872,176.012,1848.655,175.276z M1867.51,178.902
	c-1.84,1.521-5.564,1.803-5.477,0.182c0.361-5.65-1.301-8.795-8.75-9.433c-1.751-0.173-0.225-3.409,2.425-3.675
	c4.757-0.447,9.604-0.543,14.404-0.808c0.704,0.049,1.449,0.046,2.199,0.043c3.639-0.005,7.31-0.015,6.193,5.345
	C1879.581,177.916,1873.255,178.092,1867.51,178.902z"/>
</svg>
