<?xml version="1.0" encoding="utf-8"?>
<!-- Generator: Adobe Illustrator 16.0.0, SVG Export Plug-In . SVG Version: 6.00 Build 0)  -->
<!DOCTYPE svg PUBLIC "-//W3C//DTD SVG 1.1//EN" "http://www.w3.org/Graphics/SVG/1.1/DTD/svg11.dtd">
<svg version="1.1" id="Layer_1" xmlns="http://www.w3.org/2000/svg" xmlns:xlink="http://www.w3.org/1999/xlink" x="0px" y="0px"
	 width="1920px" height="233px" viewBox="0 0 1920 233" enable-background="new 0 0 1920 233" xml:space="preserve">
<path fill="#FFFFFF" d="M1920,233V65.711c-0.967,0.4-1.94,0.77-2.775,1.498c-1.789,1.525-3.766,3.582-6.104,4.029
	c-3.316,0.721-7.443,4.404-10.227,1.264c-2.148-2.34,0.185-5.928,3.051-8.262c-0.809-5.207-0.809-5.207,6.911-6.557
	c-1.341-1.529-2.603-3.047-3.956-4.396c-1.524-1.525,4.221-3.498,0.097-4.121c-2.508-0.453-6.821,0.711-8.079,2.416
	c-4.672,6.459-13.013,11.842-24.598,14.541c0.455,2.781,8.532,1.443,5.031,5.477c-2.777,3.412-7.725,3.412-11.846,0.27
	c-2.245,0.633-4.488,1.439-6.733,2.162c-2.964-0.617-6.083-0.471-9.192-0.318c-5.557,0.266-11.1,0.533-15.76-3.551
	c-3.141,0.533-6.367,0.99-9.515,1.438c-0.633,0.623-1.352,1.168-2.065,1.787c-3.051,5.842-9.688,5.311-15.431,6.289v0.096
	c8.251,6.727-0.543,8.342-4.854,11.396c-5.108,4.033-8.891,9.514-15.441,12.393c0.096,0.619-0.176,0.979-0.893,0.979
	c-4.124,6.461-9.693,11.85-15.438,17.234c5.648,4.404,7.357-1.791,10.861-3.141c1.881-0.719,3.318-2.779,5.652-1.621
	c2.335,1.352,1.71,3.42,0.359,5.029c-2.332,3.047-5.48,5.836,1.077,8.08c2.16,0.713,0.538,2.158-0.27,3.053
	c-3.674,4.574-7.456,9.242-11.13,13.82c-1.339,0.719-2.783,1.43-4.032,2.16c-1.449,1.25-2.968,2.51-4.493,3.848
	c0.537,2.334-1.706,3.688-2.875,5.574c-0.896,2.785-1.973,5.555-6.016,6.287c-1.526,1.789-3.131,3.674-4.754,5.471
	c-2.148,6.641-5.742,12.387-13.374,15.607c-1.788,2.072-4.575,1.621-6.911,1.982c0.718,0.635,1.526,1.258,2.336,1.803
	c1.792,0.262,3.506,0.531,5.204,0.805c-0.533,2.51-2.962,2.51-5.204,2.777l-1.072,0.09h-1.09c-0.797,3.5-3.488,4.311-7.174,3.77
	c-4.673,0.09-9.514,1.523-13.645-1.621h-0.088c-7.455,6.199-9.34-1.697-13.375-3.859c-7.719,0.186-14.182,5.48-22.434,3.955
	c-6.647,3.592-14.814,0.545-21.726,3.41c-1.437,0.449-4.039,0.449-4.487-1.701c-0.545-1.977,1.261-2.873,3.051-3.502
	c1.081-0.365,2.303-0.342,3.525-0.32c2.133,0.037,4.264,0.076,5.63-1.92c-2.507-1.352-2.071-3.596-2.155-5.568
	c-1.615-0.99-2.236-2.338-2.16-4.043c0.719-1.877,1.449-3.859,2.16-5.832c-6.457,0-12.2,0.809-17.054,5.201
	c-3.509,3.271-7.996,2.908-12.531,2.545c-2.188-0.178-4.39-0.354-6.497-0.117c-2.507-3.77-13.276-3.859-6.91-11.578
	c-2.246-2.418-4.579-4.938-6.822-7.451c-5.289-5.475-1.524-7.904,4.393-9.602c-3.675-2.6,12.482-5.648-0.174-8.078
	c-2.959-0.023-5.931,0.055-8.898,0.131c-10.528,0.268-21.049,0.535-31.139-3.447c-5.385,1.072-10.77,2.148-16.146,3.225
	c-6.112,0.092-12.215,0.092-18.319,0.184c-0.532-0.051-1.154,0.021-1.778,0.09c-1.572,0.182-3.164,0.361-3.422-1.441
	c-0.185-2.152,2.693-2.242,4.848-2.242c1.068-0.807,2.063-1.615,3.051-2.428c-1.795,0-3.771-0.082-5.745-0.178
	c-7.179,1.703-14.54,0.178-21.812,0.178c-4.396,1.26-10.416-1.17-13.371,3.861c-3.771,0.715-7.63,1.35-11.489,2.068
	c-2.429-0.42-4.974,0.174-7.523,0.77c-4.514,1.057-9.034,2.115-12.936-2.482c-2.335,0-4.58-0.078-6.833-0.078
	c-1.1-0.236-2.075,0.611-3.079,1.453c-1.696,1.432-3.478,2.859-6.076-0.922c-1.245-1.791-6.367-0.809-9.15,1.26
	c0.181,0.98,0,2.068,0.635,2.783c1.249,1.529,5.821,2.338,2.148,4.754c-2.783,1.885-4.578-0.533-5.475-2.773
	c-0.534-1.527-1.252-2.973-1.982-4.498c-3.866,2.498-6.984,0.877-10.104-0.744c-2.591-1.348-5.185-2.697-8.2-1.674
	c-1.979,0.893-4.039,1.703-6.103,2.51c-0.096,1.262-0.176,2.508-0.36,3.672c0.185,0.639,0.09,1.264-0.095,1.887l0.813-0.172
	c3.053,0.717,5.212-1.076,7.982-2.244c0.457,5.742-3.858,6.104-8.34,6.371c0.807,1.789,1.614,3.771,2.334,5.574
	c8.076,2.768,16.688,1.248,24.951,3.668c-9.245,1.168-18.399,2.152-27.646,0c-4.314,0.191-8.61,0.361-12.924,0.545
	c-1.705,1.793-3.41,3.676-5.026,5.563c-6.646,0.619-11.131,4.217-15.797,7.719c-3.053,0.719-6.015,1.438-8.97,2.068
	c-3.771,3.318-8.534,4.035-13.65,3.773c-2.154,5.025-7.725,5.742-12.74,7.27c-6.473,1.787-12.752,4.031-19.213,6.098
	c-1.525,0.715-3.047,1.344-4.667,2.057c-1.257,3.955-6.821,2.879-9.157,5.666c3.324,5.824-0.088,7.629-6.281,7.895
	c-2.836,1.746-5.664,3.059-8.732,3.059c-1.99,0-4.081-0.553-6.341-1.893c-2.459-1.494-5.364-1.209-8.293-0.926
	c-1.981,0.193-3.975,0.387-5.851,0.027c-0.008,0.035-0.027,0.055-0.036,0.094c-2.341,0.355-4.5,0.715-6.834,1.076
	c-0.911-0.635-2.966-0.424-5.028-0.217c-4.41,0.443-8.868,0.891-2.322-6.877c-3.955-0.18-7.814-0.352-11.135-2.238h-24.419
	c0-0.635-0.083-1.166-0.083-1.711h24.412c1.951-0.404,3.992-0.277,6.029-0.152c3.398,0.213,6.797,0.42,9.768-1.82
	c-1.256-3.771,4.04-1.438,4.578-3.682c-0.898-0.539-1.615-1.256-2.425-1.977c-9.775-0.184-19.206-2.867-28.989-1.973
	c-4.4,1.996-7.796,0.18-11.201-1.639c-3.329-1.775-6.664-3.551-10.965-1.773c6.913-4.486,13.37-1.789,19.928-0.357
	c5.822,1.078,11.751,2.334,17.855,0.982c-0.719-2.867,3.501-5.561-1.973-9.42c-2.869-2.148,4.756-7.719,11.67-7.084
	c0.535,0.082,1.169,0,1.605-0.275c0-1.529-0.356-2.963-2.147-3.77c-0.575-0.578-1.839-0.229-3.101,0.121
	c-2.273,0.631-4.548,1.26-2.818-3.533c1.072-2.955-2.334-2.42-4.313-2.42c-4.123-0.084-8.171-0.084-12.203-0.084
	c-0.938-0.223-1.88,0.098-2.826,0.418c-1.404,0.477-2.819,0.955-4.27-0.334c-1.347,0-2.787,0-4.129,0.086
	c-0.014,0.008-0.027,0.002-0.041-0.004c-0.016-0.006-0.029-0.008-0.043,0c-1.934,2.068-3.826,5.543-7.45,3.055
	c-2.973-2.059,0.448-2.691,2.413-3.32c1.525-1.254,3.146-2.422,4.673-3.686c-0.269-2.693,0.633-5.109,2.244-7.441h-6.557
	c-1.605,5.916-5.746,2.785-9.155,1.621h-0.08c-5.48,1.43-11.762,1.791-13.744,7.707c-2.867-1.432-3.859-0.08-4.298,2.068
	c0.888,1.168,3.052,2.783,2.691,3.502c-1.087,2.07-3.233,1.264-4.313-0.186c-4.218-6.182-8.261-5.918-13.104-0.354
	c-0.744,0.818-2.777,0.807-4.699,0.793c-0.614-0.006-1.217-0.01-1.763,0.018c-4.217,0.176-8.438,0.176-8.253-5.111
	c0.084-4.854,4.305-3.783,7.708-4.764c2.198-0.654,4.539-0.008,6.85,0.639c3.733,1.047,7.386,2.09,10.21-2.352
	c-1.431-0.713-2.957-1.338-4.481-2.057c-4.673,0.807-9.341,1.436-14.007-0.361c1.885-5.383,8.623-2.238,11.753-5.213
	c1.206-0.451,2.45-0.164,3.663-0.467c0.317-0.141,0.133-0.389,0.555-0.514c0.899,0.041,1.75,0.125,2.648,0.104
	c5.784-0.928,11.621-0.887,17.469-0.848c4.068,0.029,8.14,0.061,12.201-0.236c0.621,0.174,1.258,0.084,1.789-0.184
	c0.902-5.658,8.797-5.123,11.314-9.342c-3.763-0.08-7.533-0.266-11.314-0.436c-7.057,2.84-14.452,2.545-21.84,2.248
	c-4.719-0.186-9.438-0.373-14.06,0.256c-4.849,2.426-9.845,2.158-15.069,1.893c-3.09-0.156-6.26-0.316-9.527,0.084
	c0.992-5.57,6.738-5.117,8.623-7.904c-0.898-1.604-2.521-1.965-4.311-1.965c-3.053-0.094-6.012-0.184-8.969-0.273
	c-3.239,0.635-6.475,1.256-9.701,1.977c-1.428,0-2.689,0.086-3.945,0.184c-0.811,1.34-1.623,2.508-2.334,3.857
	c-0.895,0.625-1.623,1.254-2.42,1.887c-0.094,0.619,0.08,1.166,0.172,1.699c1.613,1.271,3.773,0.248,5.816-0.779
	c2.846-1.432,5.46-2.865,6.034,1.947c0.32,2.672-3.888,2.59-7.991,2.506c-1.675-0.031-3.334-0.063-4.664,0.094
	c-0.536,0-1.078,0.275-1.528,0.541c-0.628,0.623-1.339,1.35-1.979,1.977c-0.712,1.621,0.28,4.574-2.867,4.486
	c-3.051-0.174-1.788-2.961-2.333-4.668c-2.244-0.18-4.401-0.268-6.726-0.361c-6.648,0.094-13.291,0.094-19.926,0.094
	c-5.744-2.428-10.238-9.422-18.322-3.676c-5.2,1.607-5.744-3.859-10.227-4.221c1.944-1.826,3.844-1.717,5.611-1.605
	c0.762,0.045,1.5,0.094,2.203-0.016c1.525,0,3.048,0,4.574,0.096c0.717-0.715,1.523-1.35,2.338-1.979
	c1.704-2.357,4.026-1.916,6.352-1.471c1.838,0.352,3.678,0.699,5.215-0.33c5.213-0.533,10.417-1.156,15.629-1.701
	c0.81-0.088,1.526-0.088,2.418-0.186l-0.359-0.352c-1.434-1.252-2.871-2.602-4.313-3.865c-0.176-2.412-1.072-4.221-4.58-3.488
	c-2.058,6.102-6.276,7.705-12.47,3.943c-1.79-1.076-3.409-2.154-5.741-2.244c-12.928,2.877-25.847,7.631-38.598-0.449
	c-1.428,0.178-3.051,0.277-4.48,0.361c-2.163,0.088-4.137,0.273-6.291,0.445c-2.908,2.732-6.309,2.307-9.702,1.879
	c-1.634-0.205-3.263-0.41-4.838-0.262c-4.308,0.445-8.794-0.359-12.745,2.07c-1.832,0.914-3.857,0.842-5.902,0.773
	c-1.953-0.066-3.923-0.133-5.761,0.658c-3.687,0.178-7.366,0.451-11.051,0.715c-7.174,3.238-15.336,0.631-22.882,2.867
	c-2.419,0.73-2.2-2.322-0.224-3.848c3.365-2.254,0.453-7.098,5.204-8.807c5.789-0.713,11.717-1.605,17.463-2.418
	c0-0.539,0.079-1.166,0.079-1.791c-5.465-0.09-10.853-0.09-16.374-0.186c-11.616-1.076-22.439,0.271-31.151,7.818
	c-1.609,7.17,7.05,4.121,9.789,6.994c-0.823,2.961-2.96,2.43-5.103,1.898c-1.823-0.449-3.649-0.896-4.687,0.793
	c3.372,2.969,2.831,5.475-2.104,5.66c-6.911,0.174-14.093,1.791-20.644-1.615c-2.192,0.078-4.403,0.078-6.597,0.172
	c-0.764,0.635-1.526,1.258-2.289,1.885c0.402,1.803,3.687,4.402-0.764,5.117c-4.622,0.811-3.77-2.783-4.033-5.025
	c-0.764-0.359-1.577-0.533-2.338-0.902c-0.713,0.811-1.478,1.621-2.206,2.336c2.563,4.76-1.2,4.221-4.576,3.953
	c-5.156,4.031-10.272,7.18-15.254-0.094c-0.226-1.248-0.456-2.414-0.672-3.582c-4.798-3.598-11.536-0.545-18.044-3.598
	c5.431-3.236,14.85-0.895,14.316-8.885c0-0.453,4.753-2.416,4.314,0.809c-0.371,2.693-2.66,5.385,2.373,4.936
	c4.309-0.174,3.994-3.857,4.039-6.635c0.719-1.443,1.481-2.789,2.244-4.133c-1.385-5.658,7.084-16.068-9.963-13.91
	c-4.532,0.533-0.264-3.41-1.307-5.121c-1.521-0.09-3.045-0.262-4.623-0.447c-2.016,2.885-5.145,2.703-8.275,2.521
	c-2.712-0.158-5.43-0.314-7.432,1.521c-0.403,2.148,7.19,2.24,1.979,5.561c-5.969,2.068-11.891,4.127-17.862,6.289
	c-0.807,1.164-1.615,2.41-2.424,3.586c8.668,4.49,8.704,4.666,2.521,8.166c-0.053,1.076-0.053,2.148-0.053,3.141
	c0.586,2.061,6.777,0.533,3.943,4.578c-3.718,5.297-7.225,0.629-10.809-0.361c-3.811,1.174-7.579,2.514-11.715,1.621
	c-6.685,0.176-13.326,0.361-19.976,0.439c-2.822,0.098-5.604,0.188-8.436,0.283c-1.788,0.447-3.631,0.887-5.47,1.43
	c-7.093,5.293-13.324,2.6-19.392-1.615c-1.528-0.098-3.1-0.098-4.657-0.176c-1.04,1.791-3.019,2.057-4.983,2.238
	c-3.684,2.697-7.271,1.621-10.821-0.182c-2.598,2.068-5.213,5.291-7.675-0.096c-1.429-0.713-2.877-1.338-4.263-1.961
	c-0.674,0.078-1.306,0.176-1.975,0.176c-3.319,3.5-7.366,2.596-11.397,1.432c-0.854-0.082-1.711-0.176-2.519-0.266
	c-0.764,0.266-1.48,0.715-2.247,0.992c-3.362,1.768-6.931,1.422-10.495,1.076c-2.756-0.266-5.508-0.535-8.168,0.172
	c-3.5-0.625-6.955-1.248-10.457-1.883c-2.422,1.354-4.846,2.691-7.27,4.047c0.135,0.531,0.092,1.166-0.089,1.699
	c-2.691,4.482-0.897,6.377,4.804,6.006h15.931c-1.884,4.205-4.646,4.121-7.161,4.035c-0.656-0.023-1.299-0.047-1.904,0.01
	c-3.77,1.34-7.586,2.693-11.4,4.035c-8.615,5.928-20.822,3.594-29.618,9.154c-5.253,0.096-10.501,0.186-15.71,0.275
	c-6.281,3.77-12.475,7.898-22.663,3.32c6.958-2.244,13.823-1.076,17.906-5.387c5.702-0.094,11.536,0.186,15.978-3.855
	c-0.314-10.324,10.366-6.916,16.247-9.428c2.87-0.09,5.744-0.357,8.616-0.537c2.422-4.041-0.045-6.463-3.995-4.393
	c-8.256,4.393-15.078,0.713-22.392-1.174c-0.854,0.813-1.707,1.439-2.605,2.246c-1.615,0.627-3.232,1.166-4.846,1.881
	c0.718,1.887,1.437,3.773,2.154,5.563c-2.188,2.313-4.961,2.152-7.732,1.986c-1.208-0.07-2.417-0.141-3.578-0.004
	c-3.814,1.877-7.63,3.859-11.444,5.742c-1.434,0.805-2.872,1.525-4.309,2.238c-12.115,3.236-16.29,0.273-13.864-9.779
	c-6.777-0.088-13.555-0.088-20.334-0.184c-5.474,0.184-7.986,2.975-7.898,7.641c-5.068-1.713-1.613-6.475-5.474-8.002
	c-0.808,0.188-1.661,0.281-2.469,0.361c-2.751,3.482-4.853,1.979-7.095,0.473c-1.342-0.896-2.734-1.797-4.349-1.629
	c-3.067,0.27-6.088-0.324-9.169-0.92c-3.993-0.773-8.096-1.545-12.553-0.432c-3.814,0.982-6.777-3.141-7.676-6.82
	c-0.627-0.184-1.301-0.361-1.973-0.447c-4.531-1.17-9.289-2.152-13.643-3.771c-4.891-1.975-8.706-3.594-13.777,0.531
	c-2.919,2.334-9.648,4.221-6.687-3.848c0.226-0.635-2.244-1.973-3.814-3.236c8.829-1.168,17.214-0.053,25.494,1.066
	c6.412,0.865,12.762,1.73,19.204,1.535c1.391,0,2.783,0,4.219-0.092c0.09-0.439,0.269-0.895,0.448-1.342
	c-1.349-2.51-3.95-5.297,1.887-6.367c3.454-0.637,4.441-3.15,4.845-5.84c-0.808-0.541-1.615-1.074-2.378-1.619
	c-5.702,0.545-11.311-0.621-15.126,5.746c-2.286,3.77-9.469,2.334-14.359-0.09c-4.533,0-9.021-0.084-13.552-0.084
	c-1.618-0.092-3.277-0.092-4.893-0.092c-2.737,1.168-5.117,3.406-8.616,1.881c-3.188-1.07-2.021-3.588-2.289-5.564
	c-2.963-0.986-5.16-3.586-8.977-2.697c-10.145,2.068-4.756-3.674-4.713-6.816c-1.436,0-2.917-0.098-4.354-0.172
	c-1.838-0.096-3.68-0.186-5.519-0.186c-5.924-0.176-11.625,0.805-17.278,2.158c-3.546-1.537-7.225-2.158-11.221-1.615
	c-2.059,2.342-4.665,1.852-7.277,1.361c-2.285-0.43-4.572-0.857-6.499,0.613c-1.346,3.053,4.308,7.443-2.559,9.33
	c-1.425,0.309-3.033,0.172-4.645,0.033c-3.565-0.299-7.15-0.596-8.818,3.912c2.603,0.99,5.204,1.982,8.618,3.324
	c-4.647,2.809-9.035,2.014-13.496,1.219c-3.813-0.68-7.682-1.357-11.818,0.211c2.559-4.754,9.694-5.291,7.675-10.402
	c-2.021-4.313,2.514-3.326,4.624-4.217c1.526-1.264,3.052-2.428,4.576-3.686c-2.064-4.039-1.392-6.734,4.624-6.912
	c6.103,0,12.159-0.268,18.265-0.453c0.629-0.174,1.256-0.361,1.842-0.533c-0.765-1.705-1.482-3.592-2.246-5.387
	c-0.898-0.623-1.749-1.258-2.646-1.887c-2.154,0-4.264-0.178-6.418-0.262c-2.961,1.342-5.926,2.777-8.888,4.125
	c-6.686,2.244-13.597,3.678-20.823,3.41c-0.627,0-1.301,0.096-1.885,0.268c-1.975,4.125-6.328,3.326-10.276,3.688
	c-0.871,0.043-1.781-0.018-2.688-0.076c-2.691-0.176-5.405-0.346-7.319,2.135c-0.584,3.688-2.784,5.027-5.161,3.236
	c-2.423-1.98-2.065-4.578-1.618-7.006c-1.028-4.131-6.685-3.236-8.974-5.92c-12.341-0.635-22.17-5.301-29.98-13.385
	c-1.613-0.436-3.23-0.891-4.844-1.34c-2.289,0.807-4.442,1.164-6.104-0.982c-1.66-1.582-3.402-1.09-5.147-0.596
	c-1.222,0.342-2.446,0.691-3.647,0.322c-6.194,1.615-11.13-1.078-16.246-3.322c-1.975,2.512-3.413,6.201-8.168,4.037
	c-5.16-2.336-2.602-6.461-2.874-10.043c-0.404-2.152-0.857-4.281,1.697-5.807c-0.008-0.018-0.029-0.018-0.036-0.035
	c1.077-1.525,2.827-2.871,2.11-4.934c-4.487-0.898-10.097-10.412-12.924,1.246c3.543,3.326,2.915,7.814,3.41,11.412
	c0.657,4.766-2.512,4.422-5.764,4.078c-1.645-0.176-3.312-0.346-4.516,0.139c-1.614,1.793-6.238,4.396-5.116,0.984
	c2.555-7.99-1.025-6.879-4.549-5.77c-1.427,0.447-2.845,0.895-3.844,0.742c-0.642,0.135-1.253-0.422-1.843-0.975
	c-0.967-0.918-1.867-1.832-2.733,0.348c-3.322,8.346-7.27,4.752-11.533,0.904c-2.199-2.791-5.386-3.861-9.112-3.955
	c-8.527,0.453-9.424-4.221-8.93-9.695c-2.341-2.182-5.158-2.072-7.988-1.963c-1.131,0.045-2.264,0.09-3.366-0.014
	c0.36,2.16,1.213,4.307,0.942,6.459c-0.223,2.16,2.109,6.023-2.514,5.838c-3.723,0-8.526-1.617-4.98-6.725
	c1.437-1.174,1.66-2.432-0.135-3.596c-3.86-5.48-7.719-2.15-11.579,0c-3.229,4.482-4.623,4.217-9.559-1.615
	c-5.653-0.629-12.388-0.814-6.194-8.084c-2.422-1.701-1.973-3.133,0.988-3.764c3.859-0.816,6.328-2.873,7.988-5.746
	c-7.899,1.615-12.88-4.752-20.375-5.207c-5.025-0.357-5.295-3.859-1.257-7.531c2.291-1.977,8.752-2.16,6.193-7.273
	c-3.23-1.08-6.461-2.254-9.692-3.498c-2.137-0.814-3.276,1.016-4.964,1.373c-0.298,0.248-0.777,0.113-0.961,0.6
	c6.148,4.396,4.624,6.822-2.378,8.883c-2.84,0.807-5.415,0.285-7.957-0.234c-1.995-0.41-3.971-0.816-6.045-0.58
	c0.091,5.213-0.764,9.072-9.066,8.082c-2.693-0.357-5.924,2.24-8.884,3.502c-2.65,2.52-6.328,2.52-10.101,3.232
	c0.495-3.232,2.918-4.311,5.656-5.205c3.634-3.322,7.314-6.637,10.949-10.049c0.09-1.801,0.181-3.596,0.226-5.482
	c-1.93-0.715-2.379-2.244-2.559-3.764c-3.275,2.51-6.372,6.098-11.311,1.977c-1.112-0.375-2.346-0.326-3.581-0.283
	c-2.055,0.078-4.121,0.15-5.663-1.693c-2.485,0.17-4.975-0.189-7.46-0.551c-4.064-0.592-8.129-1.18-12.195,0.551
	c3.007,4.482,9.515,2.51,13.326,5.291c2.964,0.807,5.926,1.621,8.888,2.428c4.309,0,8.752-0.273,12.251,3.053
	c-2.907,3.273-5.177,1.816-7.406,0.357c-1.551-1.016-3.086-2.033-4.8-1.445c-3.992,0.096-8.123,0.902-11.579-1.699
	c-7.854,1.342-15.841,3.859-22.528-2.426c-3.725,0.721-7.001,3.412-11.308,2.16c-2.291-0.727-4.626-1.35-6.912-2.068
	c-1.797-0.262-3.995-0.545-3.457-2.602c0.675-2.516,3.186-3.049,5.968-3.049c-0.044-0.637-0.088-1.35-0.088-1.979
	c-0.911-0.133-1.869-0.109-2.823-0.09c-2.297,0.061-4.583,0.119-6.196-1.977c-3.144-1.883-6.733-3.502-6.598-7.443
	c3.768-3.232,9.063-2.602,13.508-4.041c-0.091-0.631-0.181-1.168-0.269-1.801c-3.008-0.086-5.97-0.086-8.931-0.182
	c-1.571-0.623-3.1-1.246-4.624-1.961c-7.494-0.184-4.712-3.15-2.243-6.023c0.762-1.076,1.571-2.24,2.334-3.316
	c-4.02-1.443-6.359,0.574-8.693,2.584c-2.039,1.758-4.078,3.518-7.24,2.971C10.754,13.148,5.397,14.109,0,13.188V233H1920z
	 M1895.867,66.574c-1.165,3.77-4.128,3.588-7.367,4.402C1889.406,66.213,1892.282,66.213,1895.867,66.574z M1649.666,201.291
	c1.884-0.078,3.768,0.186,4.219,2.256c-0.674,1.586-1.657,2.709-3.607,2.709c-0.138,0-0.279-0.006-0.428-0.016
	c-2.07-0.09-3.596-1.084-3.508-3.063C1646.342,201.57,1648.141,201.387,1649.666,201.291z M1620.768,199.33
	c1.43,0.084,3.132,0.172,2.598,1.883c-0.352,1.432-1.44,2.777-2.693,5.027c-2.422-2.879-3.763-3.775-3.763-4.67
	C1616.909,199.592,1618.873,199.33,1620.768,199.33z M1589.617,177.332c0.533,0.188,0.629,1.975,0.096,2.428
	c-1.361,1.316-2.718,1.988-4.098,1.988c-1.447,0-2.916-0.742-4.434-2.262C1583.608,177.146,1586.026,175.357,1589.617,177.332z
	 M1573.012,162.605c0.276-3.053,1.527-5.744,4.855-7.348c2.415,0,6.18-1.883,6.91,1.432c0.533,2.057-2.879,1.98-5.027,2.057
	c-0.186,2.16-1.088,3.859-3.956,4.143c0.45,2.057,5.124,1.07,3.956,3.141c-0.683,1.287-2.701,2.316-4.729,2.316
	c-0.652,0-1.309-0.107-1.918-0.346C1569.152,166.475,1572.559,164.412,1573.012,162.605z M1566.641,187.033h-13.555
	C1557.305,186.58,1561.797,183.619,1566.641,187.033z M1506.678,158.389c3.051-2.773,6.646-5.014,12.391-5.291
	c-1.795,2.16-3.32,3.951-4.762,5.648c1.896,1.537,6.194,1.264,5.025,4.766c-0.238,0.729-2.096,1.459-3.174,1.459
	c-0.115,0-0.219-0.008-0.314-0.025c-2.878-0.627-1.443-3.049-1.975-4.662c-2.072,1.078-3.77,2.867-6.559,2.322
	c-1.705-0.262-4.93-0.352-4.93-0.885C1501.927,159.291,1504.618,159.023,1506.678,158.389z M1299.165,223.197
	c-2.226,2.35-4.287,3.176-6.261,3.176c-2.329,0-4.534-1.15-6.735-2.303c-2.547-1.332-5.091-2.666-7.821-2.213
	C1285.162,219.256,1289.293,219.613,1299.165,223.197z M1250.964,224.455c0.899,0,1.887,0.359,4.405,0.986
	c-2.971,0.762-5.873,1.717-6.857,1.717c-0.176,0-0.292-0.033-0.334-0.102C1246.028,224.27,1249.081,224.551,1250.964,224.455z
	 M1237.592,216.646c0.915,0.209,1.855-0.076,2.823-0.357c1.504-0.441,3.073-0.883,4.711,0.535c-1.149,1.377-2.247,1.906-3.319,1.906
	C1240.369,218.73,1238.98,217.777,1237.592,216.646c-4.488,1.525-8.079,3.859-11.303,7.904
	C1225.93,214.852,1227.719,213.773,1237.592,216.646z M1246.932,179.936c-1.838,1.02-3.34,1.434-4.639,1.434
	c-2.131,0-3.711-1.115-5.33-2.51C1240.287,177.691,1243.068,177.691,1246.932,179.936z M1156.994,196.188
	c-0.54,0.264-1.35,0.809-2.254,0.809c-1.604,0-2.77-0.906-1.961-2.248c0.264-0.541,1.887-0.898,2.774-0.805
	C1156.542,194.021,1157.715,194.479,1156.994,196.188z M1172.021,199.363c-2.295-0.002-4.23-0.756-5.871-3.273
	c5.199-1.428,7.894,0.361,11.664,2.43C1175.662,198.941,1173.741,199.363,1172.021,199.363z M1167.395,183.436
	c3.955-1.973,5.932,0.09,7.907,3.674c-1.829,0.295-3.505,0.664-4.97,0.664c-1.703,0-3.126-0.498-4.182-2.189
	C1165.793,185.146,1166.683,183.703,1167.395,183.436z M1219.64,180.473c0.719-0.807,1.975-1.613,3.237-1.877
	c0.719-0.281,2.244-0.096,1.791,1.43c-0.81,1.525-2.334,2.334-4.122,2.43c-0.007,0.002-0.013,0.002-0.022,0.002
	C1220.227,182.457,1219.289,180.824,1219.64,180.473z M1190.374,184.154c7.726,0.184,15.444,0.896,22.804,3.316
	c1.98,0.186,5.918,0.273,4.847,2.158c-1.069,1.684-2.413,2.293-3.868,2.293c-1.966,0-4.134-1.113-6.094-2.195
	c-3.266-1.785-6.614-1.289-9.938-0.793c-1.877,0.279-3.747,0.559-5.59,0.432c-2.784,0.535-4.854-0.729-7.091-1.709
	c-2.06,0.088-5.034,1.434-5.296-1.342c-0.174-2.52,2.877-2.256,5.025-2.16H1190.374z M1178.887,174.375
	c2.786,0,5.742-1.166,8.719,1.166c-2.025,2.123-4.4,2.619-6.87,2.619c-2.03,0-4.125-0.338-6.146-0.379
	c-2.79,0.268-5.669,0.533-11.055-1.977C1170.45,175.182,1174.59,174.729,1178.887,174.375z M1155.373,180.473
	c2.515,0.182,4.492,1.078,4.219,3.412c-0.131,1.576-1.369,1.855-2.729,1.855c-0.496,0-1.01-0.037-1.49-0.061
	c-1.798-0.096-4.215-0.451-4.49-2.154C1150.618,181.102,1153.76,181.367,1155.373,180.473z M1122.658,181.309
	c-0.241,0-0.495-0.037-0.762-0.115c-0.629-0.266-1.342-1.434-1.261-2.064c0.272-1.252,1.349-2.34,3.147-1.703
	c0.711,0.266,1.068,1.246,1.611,1.793C1124.65,180.477,1123.791,181.309,1122.658,181.309z M1134.551,193.137
	c0.361-0.816,1.973-1.354,2.879-1.809c1.701,0.635,3.938,0.188,3.051,2.07c-0.357,0.902-2.158,1.525-3.411,1.711
	c-0.165,0.023-0.341,0.035-0.522,0.035C1135.338,195.145,1133.928,194.613,1134.551,193.137z M1133.474,163.869
	c-2.099,2.045-3.971,2.672-5.95,2.672c-1.318,0-2.686-0.277-4.198-0.602C1126.301,163.24,1128.807,161.896,1133.474,163.869z
	 M1131.686,170.604c-2.191,2.648-4.852,3.324-7.588,3.324c-1.429,0-2.875-0.186-4.289-0.367c-1.655-0.215-3.265-0.432-4.734-0.352
	C1120.555,172.396,1126.116,171.498,1131.686,170.604z M1111.398,167.553c-1.338,0.666-2.636,0.885-4.217,0.885
	c-1.823,0-4.021-0.291-7.096-0.523C1106.189,165.939,1108.707,166.029,1111.398,167.553z M1074.108,139.832
	c1.021,0.314,2.023,0.625,2.825,0.342c-1.011,2.061-2.247,2.912-3.691,2.912c-1.127,0-2.387-0.52-3.764-1.389
	C1070.35,138.689,1072.258,139.26,1074.108,139.832z M1069.029,166.652c1.705-0.178,3.59-0.178,4.493,1.699
	c-1.455,2.209-3.354,2.088-5.289,1.971c-1.062-0.066-2.132-0.131-3.147,0.188C1064.543,167.01,1067.048,166.92,1069.029,166.652z
	 M1047.852,136.043c-2.609,3.535-5.228,4.969-8.962,4.969c-0.633,0-1.295-0.043-1.995-0.121
	C1039.229,136.859,1042.64,136.402,1047.852,136.043z M989.631,172.318c-1.183,0-2.358-0.295-3.536-0.635
	c-0.277-0.096-0.54-1.35-0.181-1.621c2.425-1.977,5.028-2.148,8.616,0C992.873,171.773,991.248,172.318,989.631,172.318z
	 M1033.035,176.789c0.637-0.176,1.529,0.637,2.783,1.26c-1.351,0.811-2.146,1.617-3.051,1.711c-0.021,0.004-0.042,0.006-0.063,0.006
	c-0.542,0-1.314-0.922-1.91-1.357C1031.51,177.877,1032.146,176.881,1033.035,176.789z M1015.535,137.57
	c1.065,0.813,2.493,0.199,3.908-0.412c2.168-0.943,4.307-1.885,5.06,2.295c-1.153,2.824-2.428,3.848-3.771,3.848
	c-1.773,0-3.666-1.787-5.559-3.576c-3.949,1.432-8.076,3.326-13.277-1.076C1007.008,137.031,1011.131,136.578,1015.535,137.57z
	 M1002.693,141.156c-3.611,2.566-5.232,5.215-9.463,5.211c-0.073,0-0.15,0-0.225,0C995.423,144.66,994.984,139.91,1002.693,141.156z
	 M980.043,145.471c0.666,0,1.384,0.896,2.057,1.35c-0.719,0.531-1.391,1.432-2.242,1.604c-0.032,0.006-0.065,0.01-0.098,0.01
	c-0.575,0-1.406-0.754-2.553-1.348C978.465,146.367,979.229,145.561,980.043,145.471z M983.718,156.426
	c-2.912,0.172-6.292,1.885-8.393-1.525c2.914-3.598,5.698-0.545,8.436-0.098c2.694-2.689,6.104-2.781,9.777-1.973
	c1.352,1.26,2.614,2.506,4.046,3.768c3.769,0.721,8.968-0.9,10.418,4.938c-3.783-0.174-7.195-0.271-10.598-0.455
	c-5.514,1.277-10.862,3.275-17.119,3.275c-1.687,0-3.438-0.146-5.276-0.486c2.694-4.578,9.828-2.148,10.905-6.727
	C985.197,156.861,984.478,156.689,983.718,156.426z M979.638,168.807c1.386,0.805,2.288,2.52,1.244,3.326
	c-2.256,1.703-4.612,2.299-7.02,2.299c-3.04,0-6.162-0.957-9.267-1.863C969.35,170.234,972.804,164.588,979.638,168.807z
	 M938.165,156.066c0.761,0.084,1.885,1.787,1.664,2.148c-2.562,3.594-6.601,4.129-12.302,4.129
	C930.895,158.746,932.465,154.717,938.165,156.066z M915.326,162.889c0.219-0.904,0.796-1.711,0.763-1.625
	c2.867,0,3.765,0.545,3.36,1.625c-0.264,0.623-1.43,1.242-2.335,1.43c-0.165,0.027-0.331,0.041-0.495,0.041
	C915.73,164.359,914.982,163.941,915.326,162.889z M902.484,168.895c0.451-1.076,1.166-2.334,2.194-2.781
	c1.122-0.533,1.481,0.631,1.219,1.973c-0.534,0.623-1.347,1.525-2.155,2.518C903.294,170.063,902.313,169.254,902.484,168.895z
	 M894.406,168.537c2.334,0.094,4.221,1.164,4.625,3.236c0.313,1.525-1.169,2.244-2.65,2.244c-2.377-0.096-4.031-1.166-4.666-3.236
	C891.665,169.166,892.926,168.537,894.406,168.537z M879.009,149.238c0.28-0.719,1.493-1.344,2.384-1.438
	c1.572-0.357,2.959,0.451,3.143,1.715c0.268,1.883-1.71,1.34-3.007,1.525C880.455,150.68,878.244,151.303,879.009,149.238z
	 M867.037,168.631c0.887,0.078,1.744,0.623,2.413,0.98c0.305,1.275-0.353,1.986-1.377,1.986c-0.063,0-0.128-0.004-0.193-0.01
	c-0.892-0.184-1.966-0.719-2.368-1.43C864.748,169.078,866.045,168.537,867.037,168.631z M795.631,168.537
	c4.711-7.535,12.077-5.746,20.823-4.125c-5.647,3.141-11.796,1.072-16.112,4.125c-0.492,2.789,2.558,3.236,6.244,5.918
	c-1.66-0.207-3.334-0.133-4.872-0.051c-0.805,0.037-1.569,0.08-2.272,0.08C796.327,174.484,794.408,173.682,795.631,168.537z
	 M787.282,156.328c0.544-1.07,1.481-1.973,2.559-2.691c0.405-0.262,1.616,0.453,2.425,0.629c-1.027,1.256-2.064,2.424-2.693,3.053
	c-0.614,0.238-1.094,0.34-1.458,0.34C787.123,157.658,786.988,156.922,787.282,156.328z M757.131,158.844
	c2.777-2.662,6.052-2.328,9.444-1.996c1.415,0.141,2.851,0.277,4.28,0.201c-1.127,1.732-2.719,1.717-4.258,1.699
	c-0.854-0.006-1.691-0.018-2.427,0.275c-1.394,2.053-1.292,5.723-4.654,5.723c-0.755,0-1.683-0.186-2.841-0.615
	C751.062,162.072,756.229,160.549,757.131,158.844z M724.812,158.482c6.597-3.318,13.234-1.26,19.881-0.629
	c-5.249,2.695-11.488,0.361-16.565,3.227c0.066,4.457-1.566,5.59-3.8,5.59c-1.164,0-2.489-0.307-3.823-0.615
	c-1.626-0.381-3.262-0.756-4.623-0.57C720.145,164.227,724.588,163.24,724.812,158.482z M560.377,168.631
	c4.624,0.447,9.245,1.07,13.824,1.604c0,0.453-0.045,0.904-0.092,1.449c-4.666,0.623-9.289,1.43-13.911,1.977
	c-0.136,0.01-0.271,0.016-0.404,0.016c-1.888,0-3.456-1.121-3.456-2.711C556.294,168.982,558.404,168.447,560.377,168.631z
	 M517.652,158.746c2.83-2.865,6.193-2.32,10.412-0.436c-2.147,2.25-4.184,3.895-6.935,3.895c-0.755,0-1.564-0.125-2.444-0.396
	C517.385,161.439,516.575,159.738,517.652,158.746z M482.674,150.32c2.682,0.34,5.319,0.684,7.65,0.002
	c-5.7,5.375-13.778,2.955-21.453,4.936C472.422,149.031,477.619,149.676,482.674,150.32z M476.86,138.289
	c-2.116,0.873-3.907,2.174-6.215,2.174c-1.021,0-2.143-0.254-3.436-0.914C470.844,136.936,473.583,137.307,476.86,138.289z
	 M452.939,147.801c-1.221,3.555-3.991,3.535-6.738,3.514c-1.698-0.014-3.389-0.027-4.707,0.799
	c1.617-4.762,4.713-7.453,10.457-6.818C454.33,145.561,453.39,146.463,452.939,147.801z M435.746,129.879
	c3.24-0.838,6.311-1.682,8.801,2.043c2.737,1.609,5.879,2.059,9.155,2.059c2.153,0,5.026,0.186,4.623,2.52
	c-0.181,1.166-3.096,2.057-4.803,3.129c-2.513,1.469-5.11,1.918-7.748,1.918c-3.018,0-6.084-0.59-9.124-0.926
	c0.031-0.072,0.128-0.031,0.16-0.104c-7.471-0.807,1.065-8.662-6.121-9.957C432.381,130.744,434.086,130.313,435.746,129.879z
	 M379.292,138.461c0.577,1.336-0.379,1.855-1.598,1.855c-0.59,0-1.242-0.121-1.812-0.33c-0.897-0.357-1.526-1.07-2.423-1.697
	C375.75,137.391,378.577,136.762,379.292,138.461z M352.321,120.158c-2.896,0.787-5.713,1.143-8.461,1.143
	c-6.96,0-13.479-2.285-19.724-5.631C334.281,114.145,342.941,118.723,352.321,120.158z M311.259,110.83
	c0.225-0.639,1.481-1.527,2.201-1.451c1.927,0.098,3.363,1.09,3.409,2.879c0.09,1.621-1.661,1.621-2.873,1.98
	C311.798,113.693,310.676,112.617,311.259,110.83z M293.712,118.457c0.896,0,2.108,0.533,2.514,1.168
	c0.583,1.072-0.36,1.699-1.932,1.973c-0.582-0.543-1.661-0.9-2.108-1.615C291.423,118.811,292.725,118.363,293.712,118.457z
	 M152.075,60.916c6.687-0.807,3.904,5.658,9.514,8.176c-2.776,0.252-5.15,0.779-7.05,0.779c-2.15,0-3.693-0.678-4.527-3.207
	C149.383,64.688,149.248,61.277,152.075,60.916z M125.284,76.535c0.897,0.092,2.019,0.633,2.422,1.352
	c0.808,1.246-0.538,1.342-1.885,1.604c-0.629-0.357-1.75-0.709-2.063-1.338C123.175,77.168,124.161,76.363,125.284,76.535z
	 M89.516,64.514c0.646,0.346,1.66-0.232,2.675-0.807c1.878-1.057,3.762-2.117,3.384,2.596c-3.157,2.82-6.816,3.631-10.775,3.631
	c-1.84,0-3.745-0.172-5.694-0.402C80.269,63.707,84.04,62.711,89.516,64.514z M71.345,57.725c1.275,0.424,2.503,0.848,3.765,0.686
	c2.87,0.084,4.532,1.156,4.488,3.77c-1.906,1.336-3.477,1.85-4.854,1.85c-4.174,0-6.558-4.707-10.942-5.445
	C66.762,56.25,69.128,56.988,71.345,57.725z M52.49,54.098c1.84-1.52,5.564-1.803,5.477-0.182c-0.361,5.65,1.301,8.795,8.75,9.434
	c1.751,0.172,0.225,3.408-2.425,3.674c-4.757,0.447-9.604,0.543-14.404,0.809c-0.704-0.049-1.449-0.047-2.199-0.043
	c-3.639,0.004-7.31,0.014-6.193-5.346C40.419,55.084,46.745,54.908,52.49,54.098z"/>
</svg>
